<?xml version="1.0" encoding="UTF-8" standalone="no"?>
<!DOCTYPE svg PUBLIC "-//W3C//DTD SVG 1.1//EN" "http://www.w3.org/Graphics/SVG/1.1/DTD/svg11.dtd">
<svg xmlns="http://www.w3.org/2000/svg" version="1.1" viewBox="0.00 0.00 162.00 162.00">
<g stroke-width="2.00" fill="none" stroke-linecap="butt">
<path stroke="#c4c5c5" vector-effect="non-scaling-stroke" d="
  M 108.97 13.04
  L 108.57 13.73"
/>
<path stroke="#4a6e6e" vector-effect="non-scaling-stroke" d="
  M 108.57 13.73
  C 91.73 4.93 71.16 5.15 54.30 13.51"
/>
<path stroke="#c4c5c5" vector-effect="non-scaling-stroke" d="
  M 54.30 13.51
  Q 54.21 13.24 54.24 13.07"
/>
<path stroke="#e9e8e9" vector-effect="non-scaling-stroke" d="
  M 50.30 15.34
  Q 49.63 15.23 49.75 14.94"
/>
<path stroke="#b0b4b5" vector-effect="non-scaling-stroke" d="
  M 123.14 21.11
  Q 122.98 22.02 122.30 21.71"
/>
<path stroke="#969495" vector-effect="non-scaling-stroke" d="
  M 122.30 21.71
  Q 122.56 21.69 122.83 21.67"
/>
<path stroke="#85a8a8" vector-effect="non-scaling-stroke" d="
  M 108.57 13.73
  Q 116.07 16.29 122.83 21.67"
/>
<path stroke="#1c3d3d" vector-effect="non-scaling-stroke" d="
  M 122.83 21.67
  L 113.42 23.29"
/>
<path stroke="#1f7779" vector-effect="non-scaling-stroke" d="
  M 113.42 23.29
  L 114.37 22.80
  Q 114.91 22.52 114.42 22.16
  C 104.47 14.83 89.82 11.41 76.43 12.49
  C 74.69 12.63 72.95 13.39 71.05 13.52
  C 63.12 14.08 55.73 16.33 49.13 20.84
  Q 48.82 21.06 48.72 21.43
  Q 48.68 21.59 48.62 21.78
  Q 48.48 22.26 48.03 22.48
  C 42.58 25.11 40.34 30.41 35.48 35.19"
/>
<path stroke="#226563" vector-effect="non-scaling-stroke" d="
  M 35.48 35.19
  Q 34.00 36.49 33.06 38.06
  C 31.26 41.05 28.85 42.59 26.41 44.83
  Q 26.22 45.01 26.25 44.75
  Q 26.28 44.54 26.46 44.41
  Q 26.82 44.16 26.93 43.75
  Q 27.13 43.04 26.68 42.40
  Q 26.46 42.08 26.07 42.10
  L 25.12 42.14
  A 0.79 0.79 0.0 0 1 24.31 41.22
  L 24.75 38.52"
/>
<path stroke="#6f9191" vector-effect="non-scaling-stroke" d="
  M 24.75 38.52
  C 26.81 34.54 29.86 32.48 32.25 28.87
  Q 34.93 24.82 39.50 22.82
  A 1.72 1.70 -84.6 0 0 40.24 22.20
  C 42.81 18.40 46.60 17.30 50.30 15.34"
/>
<path stroke="#85a8a8" vector-effect="non-scaling-stroke" d="
  M 50.30 15.34
  L 54.30 13.51"
/>
<path stroke="#86a5a4" vector-effect="non-scaling-stroke" d="
  M 24.75 38.52
  L 22.15 43.56"
/>
<path stroke="#aeaeaf" vector-effect="non-scaling-stroke" d="
  M 22.15 43.56
  Q 20.75 43.90 21.06 45.77"
/>
<path stroke="#86a5a4" vector-effect="non-scaling-stroke" d="
  M 21.06 45.77
  L 17.13 53.92"
/>
<path stroke="#c3c2c3" vector-effect="non-scaling-stroke" d="
  M 17.13 53.92
  L 14.97 59.91
  A 1.01 0.99 86.2 0 1 14.51 60.45
  C 13.40 61.08 13.07 61.67 12.94 63.00
  Q 12.47 67.78 11.50 72.50
  C 10.74 76.20 11.22 79.07 11.54 82.67
  C 11.70 84.40 12.53 87.47 12.20 90.00
  C 11.41 96.05 15.04 103.67 16.96 109.32
  C 19.41 116.52 23.69 122.30 28.28 128.08
  C 29.76 129.95 32.22 131.55 33.81 133.85
  Q 34.07 134.23 34.50 134.41
  Q 36.35 135.19 37.68 136.64
  C 42.14 141.48 47.56 145.03 53.41 147.98
  C 55.42 148.99 57.84 149.36 60.06 150.19
  C 67.49 152.98 76.05 155.15 82.14 154.22
  C 88.14 153.30 94.27 154.06 99.69 151.70
  Q 106.68 148.66 110.09 147.65
  Q 110.54 147.51 110.80 147.12
  Q 111.21 146.52 111.85 146.37
  C 113.82 145.89 115.31 144.84 116.59 143.28
  C 118.07 141.49 120.17 140.86 122.70 139.85
  C 124.71 139.05 125.15 137.91 126.41 136.59
  C 129.37 133.51 133.24 130.20 135.62 126.72
  Q 136.50 125.42 137.48 124.21
  C 138.67 122.74 140.50 122.28 140.52 119.62
  Q 140.53 119.07 140.96 118.74
  Q 142.00 117.93 142.18 116.58
  Q 142.25 116.00 142.62 115.56
  L 145.57 112.05
  Q 145.87 111.69 146.34 111.72
  Q 146.89 111.75 147.07 111.94"
/>
<path stroke="#7f7d7e" vector-effect="non-scaling-stroke" d="
  M 144.75 23.70
  L 140.24 25.86"
/>
<path stroke="#161515" vector-effect="non-scaling-stroke" d="
  M 140.24 25.86
  L 140.64 24.39
  A 0.46 0.46 0.0 0 0 140.02 23.84
  Q 132.97 26.80 126.37 31.16"
/>
<path stroke="#332f30" vector-effect="non-scaling-stroke" d="
  M 126.37 31.16
  C 126.31 28.77 124.14 28.76 122.29 29.19
  Q 104.20 33.36 86.35 33.62"
/>
<path stroke="#161515" vector-effect="non-scaling-stroke" d="
  M 86.35 33.62
  Q 80.50 31.08 74.01 34.78
  Q 69.74 37.22 65.60 39.84"
/>
<path stroke="#332f30" vector-effect="non-scaling-stroke" d="
  M 65.60 39.84
  Q 64.98 39.21 64.67 38.33
  A 0.49 0.49 0.0 0 0 64.16 38.01
  L 56.94 38.83
  Q 56.43 38.89 56.07 38.53
  L 55.56 38.02
  Q 55.16 37.62 54.67 37.89
  Q 49.32 40.74 43.65 41.73"
/>
<path stroke="#161515" vector-effect="non-scaling-stroke" d="
  M 64.50 32.50
  Q 69.53 31.25 74.07 28.67
  C 78.77 26.00 81.20 25.47 86.24 25.84
  A 2.07 2.06 -70.9 0 0 88.11 24.93
  Q 88.28 24.68 87.74 24.12"
/>
<path stroke="#9a9d9e" vector-effect="non-scaling-stroke" d="
  M 145.01 24.21
  Q 145.06 23.81 144.75 23.70"
/>
<path stroke="#47494a" vector-effect="non-scaling-stroke" d="
  M 144.75 23.70
  Q 147.58 23.09 145.21 21.81
  A 0.61 0.55 -29.3 0 0 144.95 21.75
  L 124.35 22.92
  Q 123.87 22.95 123.50 22.66
  L 122.30 21.71"
/>
<path stroke="#306466" vector-effect="non-scaling-stroke" d="
  M 113.42 23.29
  L 106.98 23.49"
/>
<path stroke="#40aaaa" vector-effect="non-scaling-stroke" d="
  M 106.98 23.49
  Q 107.22 22.16 106.50 22.13
  Q 102.06 21.99 98.23 19.92
  C 91.42 16.24 81.09 16.67 73.71 17.13
  C 66.85 17.55 59.28 20.10 53.18 22.99
  Q 50.29 24.35 46.98 26.94
  Q 43.51 29.67 39.78 32.07
  A 0.06 0.06 0.0 0 0 39.80 32.18
  Q 39.94 32.23 40.09 32.26
  Q 40.31 32.31 40.11 32.41
  Q 37.12 34.01 34.82 37.15"
/>
<path stroke="#368c8c" vector-effect="non-scaling-stroke" d="
  M 34.82 37.15
  L 35.48 35.19"
/>
<path stroke="#368c8c" vector-effect="non-scaling-stroke" d="
  M 33.58 38.87
  L 28.61 44.42
  Q 28.27 44.79 28.24 45.29
  Q 28.09 47.55 30.24 47.27"
/>
<path stroke="#395756" vector-effect="non-scaling-stroke" d="
  M 30.24 47.27
  Q 29.42 47.82 29.60 47.95"
/>
<path stroke="#439794" vector-effect="non-scaling-stroke" d="
  M 26.32 50.42
  Q 24.21 51.32 23.25 54.14
  C 22.86 55.29 21.87 56.20 22.04 57.53"
/>
<path stroke="#368c8c" vector-effect="non-scaling-stroke" d="
  M 22.04 57.53
  Q 21.81 57.57 21.51 58.30"
/>
<path stroke="#4d7170" vector-effect="non-scaling-stroke" d="
  M 21.51 58.30
  L 19.43 61.78
  Q 19.25 62.08 19.25 61.73
  L 19.25 61.30
  Q 19.25 60.81 19.56 60.44
  Q 21.06 58.63 21.17 56.31
  Q 21.23 55.01 20.73 56.22
  L 20.08 57.80
  Q 19.88 58.27 19.38 58.18
  Q 18.52 58.01 18.25 59.00
  C 17.50 61.72 16.67 63.48 16.73 66.51
  C 16.77 68.50 16.76 70.71 14.34 70.96"
/>
<path stroke="#769695" vector-effect="non-scaling-stroke" d="
  M 14.34 70.96
  L 17.13 53.92"
/>
<path stroke="#618281" vector-effect="non-scaling-stroke" d="
  M 21.06 45.77
  Q 22.02 44.74 22.15 43.56"
/>
<path stroke="#8a8e8f" vector-effect="non-scaling-stroke" d="
  M 14.34 70.96
  L 14.23 73.02"
/>
<path stroke="#9e9fa0" vector-effect="non-scaling-stroke" d="
  M 14.23 73.02
  Q 12.45 76.21 13.09 79.28
  C 13.96 83.42 14.15 85.46 13.90 89.10
  C 13.63 93.07 15.20 96.82 15.71 100.76
  Q 15.77 101.27 16.08 101.69
  Q 17.19 103.17 17.25 105.00
  Q 17.27 105.47 17.54 105.86
  C 19.27 108.36 19.25 111.82 21.98 114.01
  Q 22.36 114.31 22.52 114.78
  C 24.71 121.17 29.46 126.28 34.67 131.08
  C 37.93 134.07 40.45 138.00 45.08 140.25
  Q 46.52 140.96 48.13 142.17
  C 50.33 143.83 53.30 144.98 56.07 146.41
  C 61.24 149.08 69.37 150.20 74.21 150.61
  C 84.39 151.50 92.20 150.36 102.22 147.95
  Q 103.80 147.57 105.48 146.46
  C 107.96 144.84 111.54 143.47 113.54 142.31
  C 117.00 140.31 121.76 138.65 123.55 134.73"
/>
<path stroke="#8a8e8f" vector-effect="non-scaling-stroke" d="
  M 123.55 134.73
  Q 127.70 132.13 132.23 127.47
  Q 132.91 126.77 132.76 125.93
  A 1.12 1.10 -28.6 0 1 133.05 124.97
  L 138.50 119.42
  Q 138.75 119.17 138.75 118.81
  Q 138.75 118.65 138.77 118.50
  Q 138.85 117.78 138.98 117.55
  Q 142.37 111.06 149.01 106.86"
/>
<path stroke="#7e6984" vector-effect="non-scaling-stroke" d="
  M 149.01 106.86
  L 153.11 104.72"
/>
<path stroke="#366a6c" vector-effect="non-scaling-stroke" d="
  M 30.24 47.27
  L 32.25 46.00"
/>
<path stroke="#8e7893" vector-effect="non-scaling-stroke" d="
  M 150.75 100.61
  Q 149.70 100.91 149.01 99.22"
/>
<path stroke="#9a9d9e" vector-effect="non-scaling-stroke" d="
  M 149.01 99.22
  Q 148.21 93.55 149.91 87.81"
/>
<path stroke="#817686" vector-effect="non-scaling-stroke" d="
  M 149.91 87.81
  Q 150.80 86.62 152.24 87.22
  A 0.59 0.59 0.0 0 0 152.94 86.32
  Q 152.43 85.64 151.25 85.57"
/>
<path stroke="#c3c2c3" vector-effect="non-scaling-stroke" d="
  M 151.25 85.57
  Q 152.23 76.90 151.12 68.38
  Q 150.93 66.96 149.78 64.75
  Q 148.74 62.75 148.12 59.88
  Q 147.19 55.62 143.50 50.21"
/>
<path stroke="#73a2a7" vector-effect="non-scaling-stroke" d="
  M 143.50 50.21
  Q 139.71 38.69 131.52 30.83"
/>
<path stroke="#696969" vector-effect="non-scaling-stroke" d="
  M 131.52 30.83
  Q 135.14 27.72 140.24 25.86"
/>
<path stroke="#3c6f6e" vector-effect="non-scaling-stroke" d="
  M 106.98 23.49
  L 87.74 24.12"
/>
<path stroke="#265b59" vector-effect="non-scaling-stroke" d="
  M 87.74 24.12
  C 83.73 24.35 80.29 24.13 76.56 25.81
  Q 70.43 28.56 64.50 32.50"
/>
<path stroke="#3c6f6e" vector-effect="non-scaling-stroke" d="
  M 64.50 32.50
  C 58.11 33.14 51.67 37.15 43.65 41.73"
/>
<path stroke="#437574" vector-effect="non-scaling-stroke" d="
  M 43.65 41.73
  Q 38.53 42.50 32.25 46.00"
/>
<path stroke="#40aaaa" vector-effect="non-scaling-stroke" d="
  M 32.25 46.00
  L 33.58 38.87"
/>
<path stroke="#439794" vector-effect="non-scaling-stroke" d="
  M 33.58 38.87
  L 34.82 37.15"
/>
<path stroke="#0a3a3e" vector-effect="non-scaling-stroke" d="
  M 131.52 30.83
  Q 120.02 35.25 109.61 41.86
  Q 109.21 42.12 109.41 42.55
  L 110.00 43.81"
/>
<path stroke="#1a4f51" vector-effect="non-scaling-stroke" d="
  M 110.00 43.81
  Q 112.54 50.34 113.93 56.59
  C 114.15 57.55 114.72 57.89 115.52 58.33"
/>
<path stroke="#060a19" vector-effect="non-scaling-stroke" d="
  M 115.52 58.33
  L 115.40 58.69
  Q 115.27 59.13 114.81 59.20
  Q 104.23 60.68 93.66 62.26
  C 83.00 63.85 70.71 60.33 62.18 58.20"
/>
<path stroke="#265b59" vector-effect="non-scaling-stroke" d="
  M 62.18 58.20
  L 62.52 50.57
  Q 62.55 50.06 62.03 50.04
  Q 58.29 49.89 56.74 50.04
  Q 55.25 50.17 55.51 51.60
  A 1.17 1.14 -31.3 0 1 55.28 52.49
  Q 53.13 55.25 53.84 58.75
  Q 53.59 59.46 54.48 59.51"
/>
<path stroke="#060a19" vector-effect="non-scaling-stroke" d="
  M 54.48 59.51
  Q 54.74 60.35 53.83 61.06"
/>
<path stroke="#050f21" vector-effect="non-scaling-stroke" d="
  M 53.83 61.06
  L 53.47 76.29"
/>
<path stroke="#051733" vector-effect="non-scaling-stroke" d="
  M 53.47 76.29
  L 53.83 79.03
  Q 53.89 79.53 54.33 79.79
  Q 61.12 83.81 68.41 86.82
  C 73.28 88.83 77.90 91.84 83.00 93.87
  Q 83.46 94.05 83.93 93.95
  Q 92.35 92.16 100.91 88.76"
/>
<path stroke="#050f21" vector-effect="non-scaling-stroke" d="
  M 100.91 88.76
  Q 103.05 88.84 105.40 88.09
  C 111.31 86.22 123.95 85.75 128.27 81.68"
/>
<path stroke="#180d1d" vector-effect="non-scaling-stroke" d="
  M 128.27 81.68
  Q 129.89 82.14 130.87 81.81"
/>
<path stroke="#25102a" vector-effect="non-scaling-stroke" d="
  M 130.87 81.81
  Q 130.71 83.12 130.44 83.22
  Q 123.80 85.63 116.89 86.86
  C 106.58 88.70 96.60 92.25 86.51 95.04
  C 82.36 96.19 77.38 92.63 72.04 89.64
  C 66.51 86.53 59.88 84.47 53.97 80.72"
/>
<path stroke="#0c060e" vector-effect="non-scaling-stroke" d="
  M 53.97 80.72
  Q 50.18 80.98 49.15 77.18"
/>
<path stroke="#265b59" vector-effect="non-scaling-stroke" d="
  M 49.15 77.18
  C 47.60 68.94 50.58 63.19 51.05 55.46
  A 0.82 0.82 0.0 0 0 50.52 54.65
  Q 47.97 53.68 48.84 50.82
  A 0.42 0.42 0.0 0 0 48.44 50.27
  L 41.01 50.22"
/>
<path stroke="#32605e" vector-effect="non-scaling-stroke" d="
  M 41.01 50.22
  L 32.66 50.53"
/>
<path stroke="#265b59" vector-effect="non-scaling-stroke" d="
  M 32.66 50.53
  L 26.32 50.42"
/>
<path stroke="#1d3d3b" vector-effect="non-scaling-stroke" d="
  M 26.32 50.42
  Q 25.42 48.91 29.60 47.95"
/>
<path stroke="#1d1b1b" vector-effect="non-scaling-stroke" d="
  M 29.60 47.95
  C 33.61 49.64 41.86 48.65 47.33 48.23
  C 50.47 48.00 52.75 46.60 55.29 45.00
  C 58.61 42.92 62.26 41.96 65.60 39.84"
/>
<path stroke="#1d1b1b" vector-effect="non-scaling-stroke" d="
  M 86.35 33.62
  C 82.79 33.78 79.56 33.61 76.40 35.48
  Q 71.93 38.13 67.40 40.70
  C 63.58 42.87 58.54 44.18 54.53 47.61
  Q 53.98 48.08 54.71 48.07
  Q 73.95 47.57 93.19 46.68
  Q 95.13 46.59 98.60 44.05
  C 100.79 42.44 103.80 42.29 106.33 40.89
  C 111.01 38.32 115.58 35.35 120.66 33.49
  Q 123.54 32.43 126.37 31.16"
/>
<path stroke="#27a5a2" vector-effect="non-scaling-stroke" d="
  M 22.75 62.25
  C 21.68 68.03 19.49 73.36 19.24 78.54"
/>
<path stroke="#27a5a2" vector-effect="non-scaling-stroke" d="
  M 18.53 87.30
  L 18.81 75.37
  Q 18.82 74.53 18.56 75.33
  Q 18.28 76.14 18.20 77.64
  Q 18.20 77.69 18.16 77.70
  Q 18.15 77.70 18.13 77.70
  Q 17.91 77.72 17.92 77.67
  L 18.93 69.05
  Q 19.04 68.08 18.65 68.98
  Q 18.32 69.75 17.72 72.02"
/>
<path stroke="#4a8386" vector-effect="non-scaling-stroke" d="
  M 17.72 72.02
  Q 17.84 68.51 19.15 65.33
  C 19.88 63.54 19.78 61.52 21.18 59.75
  Q 21.50 59.36 21.50 58.86
  L 21.51 58.30"
/>
<path stroke="#3e8a86" vector-effect="non-scaling-stroke" d="
  M 17.72 72.02
  Q 14.48 86.77 19.65 100.76
  C 22.24 107.79 25.17 115.72 30.38 121.27
  C 33.41 124.51 35.63 128.25 39.87 130.57
  C 41.22 131.30 41.74 132.56 43.09 133.43
  C 46.12 135.38 48.85 138.20 52.37 139.21
  Q 55.82 140.21 60.51 142.49
  C 70.25 147.22 84.59 146.50 95.49 144.78"
/>
<path stroke="#3e797c" vector-effect="non-scaling-stroke" d="
  M 95.49 144.78
  C 103.06 142.22 110.86 139.63 117.41 134.87
  C 125.42 129.06 131.63 123.95 137.05 115.80
  Q 137.30 115.42 137.20 114.96
  Q 136.93 113.88 137.84 113.07
  A 0.38 0.38 0.0 0 0 137.46 112.42
  L 135.46 113.12
  Q 135.12 113.24 134.76 113.14
  L 133.23 112.68"
/>
<path stroke="#55445f" vector-effect="non-scaling-stroke" d="
  M 133.23 112.68
  Q 136.39 110.76 139.24 110.45
  Q 139.75 110.39 139.75 110.81
  Q 139.76 111.35 140.21 111.05
  Q 144.35 108.29 149.01 106.86"
/>
<path stroke="#757a7b" vector-effect="non-scaling-stroke" d="
  M 123.55 134.73
  L 115.29 140.18
  Q 114.94 140.41 114.74 140.78
  Q 114.39 141.43 113.64 141.27
  Q 113.13 141.16 112.69 141.45
  Q 105.62 146.11 97.47 148.27
  C 91.88 149.76 85.44 148.68 79.50 148.92
  Q 72.69 149.18 69.05 148.51
  Q 58.75 146.62 49.68 141.02
  Q 46.81 139.25 45.73 138.87
  Q 44.86 138.55 44.16 137.96
  L 33.52 128.99
  Q 33.18 128.70 33.05 128.27
  Q 31.77 123.85 27.81 121.31
  Q 27.37 121.02 27.12 120.56
  Q 23.84 114.58 21.15 108.29
  Q 21.04 108.04 20.83 107.87
  Q 20.50 107.61 20.35 107.22
  C 19.33 104.53 17.89 102.61 17.27 99.83
  Q 15.91 93.78 14.55 87.74
  Q 13.40 82.60 14.23 73.02"
/>
<path stroke="#326067" vector-effect="non-scaling-stroke" d="
  M 34.78 79.11
  Q 32.93 79.08 32.21 80.62"
/>
<path stroke="#4b6a83" vector-effect="non-scaling-stroke" d="
  M 32.21 80.62
  L 28.64 86.51"
/>
<path stroke="#439794" vector-effect="non-scaling-stroke" d="
  M 28.64 86.51
  L 26.92 87.67
  Q 26.50 87.95 26.43 88.45
  C 25.75 92.93 25.58 99.68 28.87 103.27
  Q 34.00 108.87 36.54 110.21
  Q 44.80 114.59 51.28 121.33
  Q 51.61 121.68 52.10 121.71
  C 55.46 121.90 56.21 124.33 58.01 125.78
  Q 61.74 128.79 65.99 131.09
  Q 66.38 131.31 66.50 131.73
  Q 66.81 132.79 67.86 132.94
  Q 68.32 133.01 68.57 133.40
  C 70.87 137.07 75.13 136.77 78.90 135.92"
/>
<path stroke="#34b1aa" vector-effect="non-scaling-stroke" d="
  M 78.90 135.92
  Q 81.01 135.63 82.61 136.13
  Q 83.09 136.28 83.53 136.02
  Q 86.73 134.15 88.68 137.24
  Q 89.59 138.69 88.60 139.57
  Q 88.04 140.07 86.76 140.18
  Q 76.30 141.03 67.46 139.60"
/>
<path stroke="#58bab7" vector-effect="non-scaling-stroke" d="
  M 67.46 139.60
  Q 68.03 134.02 61.99 131.28
  C 56.84 128.93 55.72 125.19 51.25 122.90
  C 48.85 121.67 47.03 119.49 45.17 118.13
  C 42.53 116.18 40.91 114.28 37.69 112.92
  Q 33.59 111.19 30.57 107.73
  Q 30.32 107.45 29.96 107.39
  L 27.30 106.91
  A 0.85 0.85 0.0 0 0 26.33 107.97
  C 27.66 112.78 31.99 115.14 32.44 119.72"
/>
<path stroke="#34b1aa" vector-effect="non-scaling-stroke" d="
  M 32.44 119.72
  C 30.55 116.97 29.51 115.22 26.83 112.55
  C 24.93 110.66 24.56 107.44 23.84 105.78
  Q 22.52 102.75 20.88 99.91
  Q 18.25 95.36 18.53 87.30"
/>
<path stroke="#40aaaa" vector-effect="non-scaling-stroke" d="
  M 18.53 87.30
  L 19.24 78.54"
/>
<path stroke="#34b1aa" vector-effect="non-scaling-stroke" d="
  M 19.24 78.54
  Q 20.04 77.95 19.75 76.35
  Q 19.74 76.30 19.79 76.31
  Q 19.82 76.32 19.86 76.32
  Q 20.00 76.32 20.00 76.50
  L 20.01 83.94
  Q 20.01 83.94 20.06 83.94
  Q 20.08 83.94 20.10 83.94
  Q 20.20 83.93 20.20 83.84
  C 20.36 79.51 20.90 73.47 22.75 69.35
  Q 24.04 66.47 23.94 63.30
  Q 23.93 62.85 24.19 62.47
  Q 25.33 60.77 25.59 58.75
  Q 25.77 57.38 25.13 58.60
  L 24.21 60.36
  Q 24.06 60.63 24.02 60.33
  L 23.95 59.82
  A 0.11 0.10 -38.5 0 0 23.75 59.80
  L 22.75 62.25"
/>
<path stroke="#40aaaa" vector-effect="non-scaling-stroke" d="
  M 22.75 62.25
  L 24.08 53.68
  Q 24.10 53.53 23.99 53.63
  Q 23.90 53.73 23.80 53.82
  Q 23.67 53.95 23.66 54.13
  Q 23.55 56.49 22.04 57.53"
/>
<path stroke="#7e6984" vector-effect="non-scaling-stroke" d="
  M 69.40 116.60
  Q 69.50 123.39 72.96 129.50
  Q 73.29 130.09 73.78 130.23
  Q 74.49 130.45 74.98 129.99"
/>
<path stroke="#a48faa" vector-effect="non-scaling-stroke" d="
  M 74.98 129.99
  C 78.90 130.13 80.84 128.11 83.44 127.14
  Q 88.12 125.40 92.73 123.51
  C 95.16 122.51 98.33 122.35 100.30 121.53
  C 107.90 118.37 114.64 115.56 123.17 112.79
  C 131.74 110.00 139.85 106.25 148.39 103.36
  Q 148.89 103.19 148.73 102.69
  L 147.68 99.49"
/>
<path stroke="#55445f" vector-effect="non-scaling-stroke" d="
  M 147.68 99.49
  Q 148.52 99.62 149.01 99.22"
/>
<path stroke="#325571" vector-effect="non-scaling-stroke" d="
  M 133.23 112.68
  Q 132.00 112.84 131.00 113.80
  Q 130.67 114.12 130.20 114.13
  Q 124.44 114.23 120.26 118.09
  Q 119.88 118.45 119.36 118.46
  C 116.69 118.54 114.79 120.35 112.68 120.98
  Q 110.50 121.63 108.32 122.43
  Q 107.84 122.60 107.34 122.51
  Q 105.89 122.23 104.79 123.06
  Q 104.37 123.37 103.85 123.43
  C 100.21 123.88 97.81 126.27 95.09 127.35
  Q 92.86 128.24 90.63 129.11
  C 88.00 130.13 84.74 130.29 81.80 131.65"
/>
<path stroke="#414c65" vector-effect="non-scaling-stroke" d="
  M 81.80 131.65
  L 75.25 134.06
  A 0.75 0.74 60.0 0 1 74.41 133.83
  C 72.79 131.79 72.07 131.32 69.40 130.13
  C 65.86 128.55 63.87 125.27 60.14 123.16
  C 56.30 120.99 53.75 118.78 50.66 116.16
  C 47.38 113.39 43.37 111.93 40.26 108.26
  C 38.30 105.95 32.77 104.29 30.54 101.31
  C 27.66 97.46 27.84 91.10 28.64 86.51"
/>
<path stroke="#649398" vector-effect="non-scaling-stroke" d="
  M 143.50 50.21
  Q 145.98 56.09 147.41 62.20
  C 149.02 69.04 148.58 77.22 148.93 84.71"
/>
<path stroke="#22475a" vector-effect="non-scaling-stroke" d="
  M 148.93 84.71
  Q 147.17 84.71 145.57 83.85"
/>
<path stroke="#177f85" vector-effect="non-scaling-stroke" d="
  M 145.57 83.85
  C 147.78 79.83 145.22 77.88 144.58 74.38
  Q 143.11 66.27 140.42 60.06
  C 139.02 56.86 138.41 53.31 136.44 50.86
  C 134.80 48.83 130.84 44.28 130.95 41.66
  Q 130.95 41.62 130.93 41.58
  L 130.72 41.23
  Q 130.54 40.92 130.51 41.28
  L 130.46 41.90
  A 0.06 0.06 0.0 0 1 130.35 41.92
  L 129.31 39.88"
/>
<path stroke="#24898f" vector-effect="non-scaling-stroke" d="
  M 129.31 39.88
  L 127.43 36.93
  A 1.67 1.66 -32.7 0 0 125.11 36.43
  Q 118.19 40.97 110.00 43.81"
/>
<path stroke="#484152" vector-effect="non-scaling-stroke" d="
  M 149.91 87.81
  Q 147.84 87.09 147.14 88.03"
/>
<path stroke="#817686" vector-effect="non-scaling-stroke" d="
  M 147.14 88.03
  L 122.97 93.68"
/>
<path stroke="#786e7e" vector-effect="non-scaling-stroke" d="
  M 122.97 93.68
  L 108.01 96.23"
/>
<path stroke="#23132b" vector-effect="non-scaling-stroke" d="
  M 108.01 96.23
  Q 107.41 95.90 107.17 95.36"
/>
<path stroke="#3c1d47" vector-effect="non-scaling-stroke" d="
  M 107.17 95.36
  C 109.67 96.04 110.23 95.29 112.29 94.75
  Q 127.93 90.66 144.47 87.03
  A 1.02 1.01 -41.5 0 0 144.59 85.08
  Q 138.03 82.76 130.87 81.81"
/>
<path stroke="#978d9c" vector-effect="non-scaling-stroke" d="
  M 123.97 81.23
  L 122.86 69.43"
/>
<path stroke="#716777" vector-effect="non-scaling-stroke" d="
  M 151.25 85.57
  Q 149.83 85.64 148.93 84.71"
/>
<path stroke="#b0b4b5" vector-effect="non-scaling-stroke" d="
  M 147.68 99.49
  L 147.14 95.25"
/>
<path stroke="#9a9d9e" vector-effect="non-scaling-stroke" d="
  M 147.14 95.25
  Q 147.95 90.71 147.14 88.03"
/>
<path stroke="#1e1736" vector-effect="non-scaling-stroke" d="
  M 124.53 64.99
  L 123.64 64.94"
/>
<path stroke="#6f7382" vector-effect="non-scaling-stroke" d="
  M 123.64 64.94
  L 124.20 62.61
  Q 124.33 62.08 123.79 62.15
  L 97.88 65.34"
/>
<path stroke="#606473" vector-effect="non-scaling-stroke" d="
  M 97.88 65.34
  L 83.03 67.21
  Q 82.50 67.28 82.21 67.73
  Q 79.71 71.65 79.45 76.54"
/>
<path stroke="#4b505f" vector-effect="non-scaling-stroke" d="
  M 79.45 76.54
  Q 79.03 77.61 79.35 78.94"
/>
<path stroke="#0b193a" vector-effect="non-scaling-stroke" d="
  M 79.35 78.94
  C 76.30 76.29 79.26 70.73 80.41 67.59
  Q 80.60 67.07 80.06 66.90
  Q 70.31 63.94 60.66 60.99
  C 58.21 60.24 56.31 60.76 53.83 61.06"
/>
<path stroke="#2c6572" vector-effect="non-scaling-stroke" d="
  M 62.18 58.20
  L 54.48 59.51"
/>
<path stroke="#4a5466" vector-effect="non-scaling-stroke" d="
  M 79.35 78.94
  Q 79.03 83.59 81.18 86.57"
/>
<path stroke="#858ea0" vector-effect="non-scaling-stroke" d="
  M 81.18 86.57
  Q 81.38 88.55 82.24 90.12
  Q 82.52 90.62 83.06 90.45
  C 92.11 87.51 101.70 86.67 110.27 84.52
  Q 116.84 82.87 123.97 81.23"
/>
<path stroke="#1d1c3d" vector-effect="non-scaling-stroke" d="
  M 123.97 81.23
  Q 126.93 80.86 128.27 81.68"
/>
<path stroke="#0a2554" vector-effect="non-scaling-stroke" d="
  M 100.91 88.76
  Q 90.39 89.19 86.17 90.91
  Q 83.59 91.97 82.03 92.39
  A 0.65 0.65 0.0 0 1 81.24 91.96
  L 78.83 84.68
  Q 78.64 84.13 78.13 83.83
  C 70.72 79.53 62.58 77.56 55.31 73.47
  A 1.04 1.03 8.3 0 0 53.79 74.60
  Q 53.99 75.49 53.47 76.29"
/>
<path stroke="#279498" vector-effect="non-scaling-stroke" d="
  M 129.31 39.88
  Q 132.25 48.81 130.89 58.93
  Q 130.70 60.38 129.52 61.82
  Q 129.15 62.27 128.76 61.85
  L 127.83 60.83"
/>
<path stroke="#20596a" vector-effect="non-scaling-stroke" d="
  M 127.83 60.83
  L 115.52 58.33"
/>
<path stroke="#326067" vector-effect="non-scaling-stroke" d="
  M 49.15 77.18
  L 42.93 77.99"
/>
<path stroke="#58bab7" vector-effect="non-scaling-stroke" d="
  M 41.01 50.22
  Q 41.32 52.75 40.54 54.14
  Q 40.30 54.58 40.33 55.08
  Q 40.57 58.07 41.23 61.01
  C 42.20 65.35 41.78 69.39 44.49 73.70
  Q 44.54 73.77 44.47 73.83
  L 44.28 73.99
  Q 44.15 74.11 44.24 74.26
  L 45.05 75.74
  A 0.53 0.53 0.0 0 1 44.77 76.49
  Q 43.56 76.96 42.93 77.99"
/>
<path stroke="#3e656c" vector-effect="non-scaling-stroke" d="
  M 42.93 77.99
  L 34.78 79.11"
/>
<path stroke="#58bab7" vector-effect="non-scaling-stroke" d="
  M 34.78 79.11
  Q 32.86 78.47 32.06 79.78
  Q 30.03 83.05 26.04 86.81
  A 1.72 1.66 76.0 0 0 25.56 87.64
  L 24.73 91.01
  A 1.13 1.13 0.0 0 1 22.50 90.73
  L 22.65 77.42
  Q 22.65 77.12 22.36 77.21
  L 22.01 77.33
  Q 21.69 77.44 21.74 77.11
  Q 22.34 72.53 23.80 68.16
  C 24.15 67.12 24.00 65.72 25.17 64.60
  Q 25.51 64.26 25.50 63.78
  C 25.41 61.27 29.69 58.48 31.49 56.99
  Q 31.90 56.65 31.82 56.13
  Q 31.39 53.00 32.66 50.53"
/>
<path stroke="#301538" vector-effect="non-scaling-stroke" d="
  M 53.97 80.72
  L 53.84 90.71
  Q 53.83 91.23 54.23 91.57
  Q 57.40 94.30 61.29 95.72
  C 66.78 97.72 70.99 103.24 77.25 101.75
  Q 88.49 99.09 99.73 96.47
  C 101.95 95.95 104.70 95.98 107.17 95.36"
/>
<path stroke="#6c666f" vector-effect="non-scaling-stroke" d="
  M 108.01 96.23
  L 88.42 100.71"
/>
<path stroke="#655f68" vector-effect="non-scaling-stroke" d="
  M 88.42 100.71
  L 74.21 103.73
  Q 73.71 103.84 73.43 104.26
  Q 69.82 109.70 69.40 116.60"
/>
<path stroke="#301538" vector-effect="non-scaling-stroke" d="
  M 69.40 116.60
  Q 67.53 118.79 68.02 113.74
  Q 68.28 111.04 71.67 104.10
  Q 71.92 103.59 71.44 103.28
  Q 68.09 101.18 64.85 98.91
  C 61.71 96.72 58.01 95.58 54.65 93.35
  Q 53.77 92.77 53.85 93.81
  L 54.50 102.66
  Q 54.53 103.18 55.01 103.38
  Q 56.03 103.81 56.26 104.38
  A 1.17 1.16 -84.8 0 1 54.56 105.80
  C 52.13 104.28 49.33 104.89 48.69 101.37
  Q 48.60 100.91 48.32 100.54
  C 46.88 98.64 46.31 96.94 46.93 94.44
  C 47.56 91.91 48.72 88.35 45.17 87.23
  C 40.58 85.77 36.33 83.10 32.21 80.62"
/>
<path stroke="#40b6af" vector-effect="non-scaling-stroke" d="
  M 32.44 119.72
  Q 35.09 122.92 39.43 124.73
  Q 39.92 124.94 40.24 125.37
  L 42.64 128.66
  Q 42.96 129.10 43.49 129.26
  Q 47.61 130.45 50.99 133.09
  Q 51.41 133.42 51.92 133.55
  Q 53.40 133.91 55.32 135.42
  Q 58.49 137.91 67.46 139.60"
/>
<path stroke="#2a938c" vector-effect="non-scaling-stroke" d="
  M 78.90 135.92
  L 82.52 134.42
  Q 83.07 134.19 82.47 134.16
  Q 81.87 134.13 81.42 134.44
  A 0.19 0.19 0.0 0 1 81.14 134.20
  Q 81.19 134.09 81.28 133.99"
/>
<path stroke="#27a5a2" vector-effect="non-scaling-stroke" d="
  M 81.28 133.99
  Q 83.11 133.65 84.56 132.64
  Q 85.01 132.32 84.46 132.26
  Q 82.54 132.02 81.48 133.52"
/>
<path stroke="#2a938c" vector-effect="non-scaling-stroke" d="
  M 81.48 133.52
  L 79.03 133.81
  Q 78.48 133.87 78.97 133.62
  L 80.02 133.09"
/>
<path stroke="#1b9b98" vector-effect="non-scaling-stroke" d="
  M 80.02 133.09
  Q 90.21 130.03 93.00 129.76
  Q 95.36 129.52 96.97 128.86
  C 101.11 127.17 106.90 124.56 111.28 123.99
  C 114.27 123.61 116.82 122.18 119.80 121.73
  Q 125.89 120.81 130.62 116.79
  A 0.42 0.42 0.0 0 1 131.31 117.16
  C 130.92 120.76 120.05 128.45 116.92 130.30
  Q 109.34 134.78 100.83 138.41
  A 1.46 1.45 -25.4 0 0 100.11 140.42
  Q 101.05 142.22 98.21 142.97
  Q 96.57 143.40 95.49 144.78"
/>
<path stroke="#2a8282" vector-effect="non-scaling-stroke" d="
  M 81.80 131.65
  Q 81.31 132.66 80.02 133.09"
/>
<path stroke="#368c8c" vector-effect="non-scaling-stroke" d="
  M 81.48 133.52
  L 81.28 133.99"
/>
<path stroke="#d9d9da" vector-effect="non-scaling-stroke" d="
  M 74.98 129.99
  Q 73.88 129.85 74.12 128.96
  Q 72.20 122.58 72.17 115.82
  Q 72.17 115.25 72.71 115.12
  L 93.30 109.98"
/>
<path stroke="#255264" vector-effect="non-scaling-stroke" d="
  M 145.57 83.85
  Q 136.12 80.81 126.74 78.12
  C 121.94 76.74 123.41 68.10 124.53 64.99"
/>
<path stroke="#134f60" vector-effect="non-scaling-stroke" d="
  M 124.53 64.99
  Q 124.60 62.51 127.83 60.83"
/>
<path stroke="#c4c5c5" vector-effect="non-scaling-stroke" d="
  M 81.18 86.57
  L 80.57 76.88"
/>
<path stroke="#e9e8e9" vector-effect="non-scaling-stroke" d="
  M 147.14 95.25
  L 124.71 101.91"
/>
<path stroke="#c9c9ca" vector-effect="non-scaling-stroke" d="
  M 124.71 101.91
  Q 125.02 100.23 124.23 97.72
  Q 124.09 97.30 123.72 97.07
  Q 121.54 95.73 122.97 93.68"
/>
<path stroke="#817686" vector-effect="non-scaling-stroke" d="
  M 123.64 64.94
  L 122.86 69.43"
/>
<path stroke="#e9e8e9" vector-effect="non-scaling-stroke" d="
  M 122.86 69.43
  L 100.01 73.47"
/>
<path stroke="#c3c2c3" vector-effect="non-scaling-stroke" d="
  M 100.01 73.47
  L 97.88 65.34"
/>
<path stroke="#e0e0e1" vector-effect="non-scaling-stroke" d="
  M 124.71 101.91
  C 119.29 103.48 113.32 104.26 108.50 105.62
  Q 100.86 107.78 93.30 109.98"
/>
<path stroke="#bababb" vector-effect="non-scaling-stroke" d="
  M 93.30 109.98
  Q 93.41 108.51 91.31 108.50
  Q 90.78 108.49 90.80 107.96
  Q 90.98 104.07 88.42 100.71"
/>
<path stroke="#d9d9da" vector-effect="non-scaling-stroke" d="
  M 100.01 73.47
  L 80.57 76.88"
/>
<path stroke="#9e9fa0" vector-effect="non-scaling-stroke" d="
  M 80.57 76.88
  L 79.45 76.54"
/>
<path stroke="#301538" vector-effect="non-scaling-stroke" d="
  M 35.88 81.04
  Q 39.17 82.84 41.69 85.01
  C 43.57 86.63 45.49 86.86 47.76 87.44
  A 0.59 0.58 -81.4 0 0 48.48 86.90
  L 48.85 79.90
  Q 48.88 79.26 48.25 79.15
  C 44.56 78.49 39.55 79.94 35.97 80.51
  A 0.28 0.28 0.0 0 0 35.88 81.04"
/>
<path stroke="#61276e" vector-effect="non-scaling-stroke" d="
  M 67.29 117.20
  C 65.56 115.26 63.69 113.35 60.96 113.07
  A 1.77 1.74 66.4 0 1 60.06 112.71
  C 56.57 109.93 53.69 106.95 49.64 104.74
  Q 45.18 102.31 41.24 99.10
  C 37.49 96.04 33.67 95.32 30.24 91.58
  A 0.46 0.45 -63.7 0 0 29.45 91.85
  C 29.00 97.01 30.41 101.49 35.13 103.90
  C 39.19 105.97 41.19 109.16 44.81 111.37
  C 49.53 114.26 53.76 117.00 58.52 121.58
  A 2.01 1.99 73.9 0 0 59.38 122.06
  C 63.63 123.15 66.97 126.99 70.01 129.78
  A 0.78 0.78 0.0 0 0 71.22 128.81
  Q 68.34 123.80 67.67 118.05
  A 1.49 1.47 -69.5 0 0 67.29 117.20"
/>
</g>
<path fill="#898b8b" d="
  M 108.97 13.04
  L 108.57 13.73
  C 91.73 4.93 71.16 5.15 54.30 13.51
  Q 54.21 13.24 54.24 13.07
  C 65.61 7.27 79.75 5.03 92.31 7.19
  Q 97.86 8.14 108.97 13.04
  Z"
/>
<path fill="#0b5050" d="
  M 108.57 13.73
  Q 116.07 16.29 122.83 21.67
  L 113.42 23.29
  L 114.37 22.80
  Q 114.91 22.52 114.42 22.16
  C 104.47 14.83 89.82 11.41 76.43 12.49
  C 74.69 12.63 72.95 13.39 71.05 13.52
  C 63.12 14.08 55.73 16.33 49.13 20.84
  Q 48.82 21.06 48.72 21.43
  Q 48.68 21.59 48.62 21.78
  Q 48.48 22.26 48.03 22.48
  C 42.58 25.11 40.34 30.41 35.48 35.19
  Q 34.00 36.49 33.06 38.06
  C 31.26 41.05 28.85 42.59 26.41 44.83
  Q 26.22 45.01 26.25 44.75
  Q 26.28 44.54 26.46 44.41
  Q 26.82 44.16 26.93 43.75
  Q 27.13 43.04 26.68 42.40
  Q 26.46 42.08 26.07 42.10
  L 25.12 42.14
  A 0.79 0.79 0.0 0 1 24.31 41.22
  L 24.75 38.52
  C 26.81 34.54 29.86 32.48 32.25 28.87
  Q 34.93 24.82 39.50 22.82
  A 1.72 1.70 -84.6 0 0 40.24 22.20
  C 42.81 18.40 46.60 17.30 50.30 15.34
  L 54.30 13.51
  C 71.16 5.15 91.73 4.93 108.57 13.73
  Z"
/>
<path fill="#339ea2" d="
  M 113.42 23.29
  L 106.98 23.49
  Q 107.22 22.16 106.50 22.13
  Q 102.06 21.99 98.23 19.92
  C 91.42 16.24 81.09 16.67 73.71 17.13
  C 66.85 17.55 59.28 20.10 53.18 22.99
  Q 50.29 24.35 46.98 26.94
  Q 43.51 29.67 39.78 32.07
  A 0.06 0.06 0.0 0 0 39.80 32.18
  Q 39.94 32.23 40.09 32.26
  Q 40.31 32.31 40.11 32.41
  Q 37.12 34.01 34.82 37.15
  L 35.48 35.19
  C 40.34 30.41 42.58 25.11 48.03 22.48
  Q 48.48 22.26 48.62 21.78
  Q 48.68 21.59 48.72 21.43
  Q 48.82 21.06 49.13 20.84
  C 55.73 16.33 63.12 14.08 71.05 13.52
  C 72.95 13.39 74.69 12.63 76.43 12.49
  C 89.82 11.41 104.47 14.83 114.42 22.16
  Q 114.91 22.52 114.37 22.80
  L 113.42 23.29
  Z"
/>
<path fill="#ffffff" d="
  M 54.24 13.07
  Q 54.21 13.24 54.30 13.51
  L 50.30 15.34
  Q 49.63 15.23 49.75 14.94
  Q 51.27 12.31 54.24 13.07
  Z"
/>
<path fill="#ffffff" d="
  M 108.97 13.04
  Q 112.52 13.82 115.46 16.33
  A 1.83 1.76 68.8 0 0 116.32 16.73
  Q 120.87 17.44 123.14 21.11
  Q 122.98 22.02 122.30 21.71
  Q 122.56 21.69 122.83 21.67
  Q 116.07 16.29 108.57 13.73
  L 108.97 13.04
  Z"
/>
<path fill="#d2d1d2" d="
  M 49.75 14.94
  Q 49.63 15.23 50.30 15.34
  C 46.60 17.30 42.81 18.40 40.24 22.20
  A 1.72 1.70 -84.6 0 1 39.50 22.82
  Q 34.93 24.82 32.25 28.87
  C 29.86 32.48 26.81 34.54 24.75 38.52
  L 22.15 43.56
  Q 20.75 43.90 21.06 45.77
  L 17.13 53.92
  L 14.97 59.91
  A 1.01 0.99 86.2 0 1 14.51 60.45
  C 13.40 61.08 13.07 61.67 12.94 63.00
  Q 12.47 67.78 11.50 72.50
  C 10.74 76.20 11.22 79.07 11.54 82.67
  C 11.70 84.40 12.53 87.47 12.20 90.00
  C 11.41 96.05 15.04 103.67 16.96 109.32
  C 19.41 116.52 23.69 122.30 28.28 128.08
  C 29.76 129.95 32.22 131.55 33.81 133.85
  Q 34.07 134.23 34.50 134.41
  Q 36.35 135.19 37.68 136.64
  C 42.14 141.48 47.56 145.03 53.41 147.98
  C 55.42 148.99 57.84 149.36 60.06 150.19
  C 67.49 152.98 76.05 155.15 82.14 154.22
  C 88.14 153.30 94.27 154.06 99.69 151.70
  Q 106.68 148.66 110.09 147.65
  Q 110.54 147.51 110.80 147.12
  Q 111.21 146.52 111.85 146.37
  C 113.82 145.89 115.31 144.84 116.59 143.28
  C 118.07 141.49 120.17 140.86 122.70 139.85
  C 124.71 139.05 125.15 137.91 126.41 136.59
  C 129.37 133.51 133.24 130.20 135.62 126.72
  Q 136.50 125.42 137.48 124.21
  C 138.67 122.74 140.50 122.28 140.52 119.62
  Q 140.53 119.07 140.96 118.74
  Q 142.00 117.93 142.18 116.58
  Q 142.25 116.00 142.62 115.56
  L 145.57 112.05
  Q 145.87 111.69 146.34 111.72
  Q 146.89 111.75 147.07 111.94
  Q 136.51 134.64 115.33 146.75
  C 109.66 149.99 99.33 154.70 92.51 155.03
  C 81.33 155.56 68.95 156.32 58.39 151.91
  Q 53.31 149.79 48.41 147.29
  C 36.62 141.26 26.63 130.52 19.50 119.49
  Q 17.34 116.14 13.71 106.55
  Q 10.25 97.38 9.40 89.23
  Q 9.34 88.72 8.98 88.35
  L 8.65 88.02
  Q 8.42 87.80 8.39 87.48
  Q 7.61 80.71 8.24 73.92
  Q 8.29 73.40 8.74 73.14
  L 9.09 72.93
  Q 9.42 72.74 9.46 72.36
  Q 10.55 62.37 13.67 55.68
  C 15.81 51.11 17.33 46.04 20.32 41.93
  C 22.67 38.69 24.64 35.06 27.30 32.27
  Q 29.36 30.11 31.54 28.05
  Q 31.91 27.70 31.97 27.20
  C 32.03 26.73 32.07 26.34 32.47 26.01
  C 35.56 23.44 39.93 21.30 43.00 17.47
  Q 43.31 17.08 43.80 17.08
  Q 46.96 17.02 49.75 14.94
  Z"
/>
<path fill="#4cb5b2" d="
  M 106.98 23.49
  L 87.74 24.12
  C 83.73 24.35 80.29 24.13 76.56 25.81
  Q 70.43 28.56 64.50 32.50
  C 58.11 33.14 51.67 37.15 43.65 41.73
  Q 38.53 42.50 32.25 46.00
  L 33.58 38.87
  L 34.82 37.15
  Q 37.12 34.01 40.11 32.41
  Q 40.31 32.31 40.09 32.26
  Q 39.94 32.23 39.80 32.18
  A 0.06 0.06 0.0 0 1 39.78 32.07
  Q 43.51 29.67 46.98 26.94
  Q 50.29 24.35 53.18 22.99
  C 59.28 20.10 66.85 17.55 73.71 17.13
  C 81.09 16.67 91.42 16.24 98.23 19.92
  Q 102.06 21.99 106.50 22.13
  Q 107.22 22.16 106.98 23.49
  Z"
/>
<path fill="#61686a" d="
  M 145.01 24.21
  Q 145.06 23.81 144.75 23.70
  Q 147.58 23.09 145.21 21.81
  A 0.61 0.55 -29.3 0 0 144.95 21.75
  L 124.35 22.92
  Q 123.87 22.95 123.50 22.66
  L 122.30 21.71
  Q 122.98 22.02 123.14 21.11
  Q 123.32 22.28 124.25 22.24
  Q 134.26 21.77 144.24 20.90
  Q 145.87 20.76 147.16 21.63
  Q 147.59 21.92 147.30 22.35
  Q 146.46 23.61 145.01 24.21
  Z"
/>
<path fill="#2c292a" d="
  M 122.83 21.67
  Q 122.56 21.69 122.30 21.71
  L 123.50 22.66
  Q 123.87 22.95 124.35 22.92
  L 144.95 21.75
  A 0.61 0.55 -29.3 0 1 145.21 21.81
  Q 147.58 23.09 144.75 23.70
  L 140.24 25.86
  L 140.64 24.39
  A 0.46 0.46 0.0 0 0 140.02 23.84
  Q 132.97 26.80 126.37 31.16
  C 126.31 28.77 124.14 28.76 122.29 29.19
  Q 104.20 33.36 86.35 33.62
  Q 80.50 31.08 74.01 34.78
  Q 69.74 37.22 65.60 39.84
  Q 64.98 39.21 64.67 38.33
  A 0.49 0.49 0.0 0 0 64.16 38.01
  L 56.94 38.83
  Q 56.43 38.89 56.07 38.53
  L 55.56 38.02
  Q 55.16 37.62 54.67 37.89
  Q 49.32 40.74 43.65 41.73
  C 51.67 37.15 58.11 33.14 64.50 32.50
  Q 69.53 31.25 74.07 28.67
  C 78.77 26.00 81.20 25.47 86.24 25.84
  A 2.07 2.06 -70.9 0 0 88.11 24.93
  Q 88.28 24.68 87.74 24.12
  L 106.98 23.49
  L 113.42 23.29
  L 122.83 21.67
  Z"
/>
<path fill="#d2d1d2" d="
  M 144.75 23.70
  Q 145.06 23.81 145.01 24.21
  C 143.71 26.65 141.43 27.17 139.85 28.77
  Q 138.63 30.01 137.29 31.23
  A 1.05 1.03 -22.8 0 0 136.95 32.04
  C 137.02 33.70 138.07 34.52 138.75 35.64
  Q 144.44 45.00 145.75 47.70
  C 153.74 64.24 157.45 83.10 150.75 100.61
  Q 149.70 100.91 149.01 99.22
  Q 148.21 93.55 149.91 87.81
  Q 150.80 86.62 152.24 87.22
  A 0.59 0.59 0.0 0 0 152.94 86.32
  Q 152.43 85.64 151.25 85.57
  Q 152.23 76.90 151.12 68.38
  Q 150.93 66.96 149.78 64.75
  Q 148.74 62.75 148.12 59.88
  Q 147.19 55.62 143.50 50.21
  Q 139.71 38.69 131.52 30.83
  Q 135.14 27.72 140.24 25.86
  L 144.75 23.70
  Z"
/>
<path fill="#000000" d="
  M 140.24 25.86
  Q 135.14 27.72 131.52 30.83
  Q 120.02 35.25 109.61 41.86
  Q 109.21 42.12 109.41 42.55
  L 110.00 43.81
  Q 112.54 50.34 113.93 56.59
  C 114.15 57.55 114.72 57.89 115.52 58.33
  L 115.40 58.69
  Q 115.27 59.13 114.81 59.20
  Q 104.23 60.68 93.66 62.26
  C 83.00 63.85 70.71 60.33 62.18 58.20
  L 62.52 50.57
  Q 62.55 50.06 62.03 50.04
  Q 58.29 49.89 56.74 50.04
  Q 55.25 50.17 55.51 51.60
  A 1.17 1.14 -31.3 0 1 55.28 52.49
  Q 53.13 55.25 53.84 58.75
  Q 53.59 59.46 54.48 59.51
  Q 54.74 60.35 53.83 61.06
  L 53.47 76.29
  L 53.83 79.03
  Q 53.89 79.53 54.33 79.79
  Q 61.12 83.81 68.41 86.82
  C 73.28 88.83 77.90 91.84 83.00 93.87
  Q 83.46 94.05 83.93 93.95
  Q 92.35 92.16 100.91 88.76
  Q 103.05 88.84 105.40 88.09
  C 111.31 86.22 123.95 85.75 128.27 81.68
  Q 129.89 82.14 130.87 81.81
  Q 130.71 83.12 130.44 83.22
  Q 123.80 85.63 116.89 86.86
  C 106.58 88.70 96.60 92.25 86.51 95.04
  C 82.36 96.19 77.38 92.63 72.04 89.64
  C 66.51 86.53 59.88 84.47 53.97 80.72
  Q 50.18 80.98 49.15 77.18
  C 47.60 68.94 50.58 63.19 51.05 55.46
  A 0.82 0.82 0.0 0 0 50.52 54.65
  Q 47.97 53.68 48.84 50.82
  A 0.42 0.42 0.0 0 0 48.44 50.27
  L 41.01 50.22
  L 32.66 50.53
  L 26.32 50.42
  Q 25.42 48.91 29.60 47.95
  C 33.61 49.64 41.86 48.65 47.33 48.23
  C 50.47 48.00 52.75 46.60 55.29 45.00
  C 58.61 42.92 62.26 41.96 65.60 39.84
  Q 69.74 37.22 74.01 34.78
  Q 80.50 31.08 86.35 33.62
  C 82.79 33.78 79.56 33.61 76.40 35.48
  Q 71.93 38.13 67.40 40.70
  C 63.58 42.87 58.54 44.18 54.53 47.61
  Q 53.98 48.08 54.71 48.07
  Q 73.95 47.57 93.19 46.68
  Q 95.13 46.59 98.60 44.05
  C 100.79 42.44 103.80 42.29 106.33 40.89
  C 111.01 38.32 115.58 35.35 120.66 33.49
  Q 123.54 32.43 126.37 31.16
  Q 132.97 26.80 140.02 23.84
  A 0.46 0.46 0.0 0 1 140.64 24.39
  L 140.24 25.86
  Z"
/>
<path fill="#000000" d="
  M 87.74 24.12
  Q 88.28 24.68 88.11 24.93
  A 2.07 2.06 -70.9 0 1 86.24 25.84
  C 81.20 25.47 78.77 26.00 74.07 28.67
  Q 69.53 31.25 64.50 32.50
  Q 70.43 28.56 76.56 25.81
  C 80.29 24.13 83.73 24.35 87.74 24.12
  Z"
/>
<path fill="#393535" d="
  M 126.37 31.16
  Q 123.54 32.43 120.66 33.49
  C 115.58 35.35 111.01 38.32 106.33 40.89
  C 103.80 42.29 100.79 42.44 98.60 44.05
  Q 95.13 46.59 93.19 46.68
  Q 73.95 47.57 54.71 48.07
  Q 53.98 48.08 54.53 47.61
  C 58.54 44.18 63.58 42.87 67.40 40.70
  Q 71.93 38.13 76.40 35.48
  C 79.56 33.61 82.79 33.78 86.35 33.62
  Q 104.20 33.36 122.29 29.19
  C 124.14 28.76 126.31 28.77 126.37 31.16
  Z"
/>
<path fill="#14737b" d="
  M 131.52 30.83
  Q 139.71 38.69 143.50 50.21
  Q 145.98 56.09 147.41 62.20
  C 149.02 69.04 148.58 77.22 148.93 84.71
  Q 147.17 84.71 145.57 83.85
  C 147.78 79.83 145.22 77.88 144.58 74.38
  Q 143.11 66.27 140.42 60.06
  C 139.02 56.86 138.41 53.31 136.44 50.86
  C 134.80 48.83 130.84 44.28 130.95 41.66
  Q 130.95 41.62 130.93 41.58
  L 130.72 41.23
  Q 130.54 40.92 130.51 41.28
  L 130.46 41.90
  A 0.06 0.06 0.0 0 1 130.35 41.92
  L 129.31 39.88
  L 127.43 36.93
  A 1.67 1.66 -32.7 0 0 125.11 36.43
  Q 118.19 40.97 110.00 43.81
  L 109.41 42.55
  Q 109.21 42.12 109.61 41.86
  Q 120.02 35.25 131.52 30.83
  Z"
/>
<path fill="#397976" d="
  M 35.48 35.19
  L 34.82 37.15
  L 33.58 38.87
  L 28.61 44.42
  Q 28.27 44.79 28.24 45.29
  Q 28.09 47.55 30.24 47.27
  Q 29.42 47.82 29.60 47.95
  Q 25.42 48.91 26.32 50.42
  Q 24.21 51.32 23.25 54.14
  C 22.86 55.29 21.87 56.20 22.04 57.53
  Q 21.81 57.57 21.51 58.30
  L 19.43 61.78
  Q 19.25 62.08 19.25 61.73
  L 19.25 61.30
  Q 19.25 60.81 19.56 60.44
  Q 21.06 58.63 21.17 56.31
  Q 21.23 55.01 20.73 56.22
  L 20.08 57.80
  Q 19.88 58.27 19.38 58.18
  Q 18.52 58.01 18.25 59.00
  C 17.50 61.72 16.67 63.48 16.73 66.51
  C 16.77 68.50 16.76 70.71 14.34 70.96
  L 17.13 53.92
  L 21.06 45.77
  Q 22.02 44.74 22.15 43.56
  L 24.75 38.52
  L 24.31 41.22
  A 0.79 0.79 0.0 0 0 25.12 42.14
  L 26.07 42.10
  Q 26.46 42.08 26.68 42.40
  Q 27.13 43.04 26.93 43.75
  Q 26.82 44.16 26.46 44.41
  Q 26.28 44.54 26.25 44.75
  Q 26.22 45.01 26.41 44.83
  C 28.85 42.59 31.26 41.05 33.06 38.06
  Q 34.00 36.49 35.48 35.19
  Z"
/>
<path fill="#339ea2" d="
  M 129.31 39.88
  Q 132.25 48.81 130.89 58.93
  Q 130.70 60.38 129.52 61.82
  Q 129.15 62.27 128.76 61.85
  L 127.83 60.83
  L 115.52 58.33
  C 114.72 57.89 114.15 57.55 113.93 56.59
  Q 112.54 50.34 110.00 43.81
  Q 118.19 40.97 125.11 36.43
  A 1.67 1.66 -32.7 0 1 127.43 36.93
  L 129.31 39.88
  Z"
/>
<path fill="#393535" d="
  M 65.60 39.84
  C 62.26 41.96 58.61 42.92 55.29 45.00
  C 52.75 46.60 50.47 48.00 47.33 48.23
  C 41.86 48.65 33.61 49.64 29.60 47.95
  Q 29.42 47.82 30.24 47.27
  L 32.25 46.00
  Q 38.53 42.50 43.65 41.73
  Q 49.32 40.74 54.67 37.89
  Q 55.16 37.62 55.56 38.02
  L 56.07 38.53
  Q 56.43 38.89 56.94 38.83
  L 64.16 38.01
  A 0.49 0.49 0.0 0 1 64.67 38.33
  Q 64.98 39.21 65.60 39.84
  Z"
/>
<path fill="#339ea2" d="
  M 33.58 38.87
  L 32.25 46.00
  L 30.24 47.27
  Q 28.09 47.55 28.24 45.29
  Q 28.27 44.79 28.61 44.42
  L 33.58 38.87
  Z"
/>
<path fill="#1a8a8e" d="
  M 129.31 39.88
  L 130.35 41.92
  A 0.06 0.06 0.0 0 0 130.46 41.90
  L 130.51 41.28
  Q 130.54 40.92 130.72 41.23
  L 130.93 41.58
  Q 130.95 41.62 130.95 41.66
  C 130.84 44.28 134.80 48.83 136.44 50.86
  C 138.41 53.31 139.02 56.86 140.42 60.06
  Q 143.11 66.27 144.58 74.38
  C 145.22 77.88 147.78 79.83 145.57 83.85
  Q 136.12 80.81 126.74 78.12
  C 121.94 76.74 123.41 68.10 124.53 64.99
  Q 124.60 62.51 127.83 60.83
  L 128.76 61.85
  Q 129.15 62.27 129.52 61.82
  Q 130.70 60.38 130.89 58.93
  Q 132.25 48.81 129.31 39.88
  Z"
/>
<path fill="#898b8b" d="
  M 22.15 43.56
  Q 22.02 44.74 21.06 45.77
  Q 20.75 43.90 22.15 43.56
  Z"
/>
<path fill="#4cb5b2" d="
  M 62.18 58.20
  L 54.48 59.51
  Q 53.59 59.46 53.84 58.75
  Q 53.13 55.25 55.28 52.49
  A 1.17 1.14 -31.3 0 0 55.51 51.60
  Q 55.25 50.17 56.74 50.04
  Q 58.29 49.89 62.03 50.04
  Q 62.55 50.06 62.52 50.57
  L 62.18 58.20
  Z"
/>
<path fill="#64bfbb" d="
  M 41.01 50.22
  Q 41.32 52.75 40.54 54.14
  Q 40.30 54.58 40.33 55.08
  Q 40.57 58.07 41.23 61.01
  C 42.20 65.35 41.78 69.39 44.49 73.70
  Q 44.54 73.77 44.47 73.83
  L 44.28 73.99
  Q 44.15 74.11 44.24 74.26
  L 45.05 75.74
  A 0.53 0.53 0.0 0 1 44.77 76.49
  Q 43.56 76.96 42.93 77.99
  L 34.78 79.11
  Q 32.86 78.47 32.06 79.78
  Q 30.03 83.05 26.04 86.81
  A 1.72 1.66 76.0 0 0 25.56 87.64
  L 24.73 91.01
  A 1.13 1.13 0.0 0 1 22.50 90.73
  L 22.65 77.42
  Q 22.65 77.12 22.36 77.21
  L 22.01 77.33
  Q 21.69 77.44 21.74 77.11
  Q 22.34 72.53 23.80 68.16
  C 24.15 67.12 24.00 65.72 25.17 64.60
  Q 25.51 64.26 25.50 63.78
  C 25.41 61.27 29.69 58.48 31.49 56.99
  Q 31.90 56.65 31.82 56.13
  Q 31.39 53.00 32.66 50.53
  L 41.01 50.22
  Z"
/>
<path fill="#4cb5b2" d="
  M 41.01 50.22
  L 48.44 50.27
  A 0.42 0.42 0.0 0 1 48.84 50.82
  Q 47.97 53.68 50.52 54.65
  A 0.82 0.82 0.0 0 1 51.05 55.46
  C 50.58 63.19 47.60 68.94 49.15 77.18
  L 42.93 77.99
  Q 43.56 76.96 44.77 76.49
  A 0.53 0.53 0.0 0 0 45.05 75.74
  L 44.24 74.26
  Q 44.15 74.11 44.28 73.99
  L 44.47 73.83
  Q 44.54 73.77 44.49 73.70
  C 41.78 69.39 42.20 65.35 41.23 61.01
  Q 40.57 58.07 40.33 55.08
  Q 40.30 54.58 40.54 54.14
  Q 41.32 52.75 41.01 50.22
  Z"
/>
<path fill="#b3b3b4" d="
  M 143.50 50.21
  Q 147.19 55.62 148.12 59.88
  Q 148.74 62.75 149.78 64.75
  Q 150.93 66.96 151.12 68.38
  Q 152.23 76.90 151.25 85.57
  Q 149.83 85.64 148.93 84.71
  C 148.58 77.22 149.02 69.04 147.41 62.20
  Q 145.98 56.09 143.50 50.21
  Z"
/>
<path fill="#4cb5b2" d="
  M 26.32 50.42
  L 32.66 50.53
  Q 31.39 53.00 31.82 56.13
  Q 31.90 56.65 31.49 56.99
  C 29.69 58.48 25.41 61.27 25.50 63.78
  Q 25.51 64.26 25.17 64.60
  C 24.00 65.72 24.15 67.12 23.80 68.16
  Q 22.34 72.53 21.74 77.11
  Q 21.69 77.44 22.01 77.33
  L 22.36 77.21
  Q 22.65 77.12 22.65 77.42
  L 22.50 90.73
  A 1.13 1.13 0.0 0 0 24.73 91.01
  L 25.56 87.64
  A 1.72 1.66 76.0 0 1 26.04 86.81
  Q 30.03 83.05 32.06 79.78
  Q 32.86 78.47 34.78 79.11
  Q 32.93 79.08 32.21 80.62
  L 28.64 86.51
  L 26.92 87.67
  Q 26.50 87.95 26.43 88.45
  C 25.75 92.93 25.58 99.68 28.87 103.27
  Q 34.00 108.87 36.54 110.21
  Q 44.80 114.59 51.28 121.33
  Q 51.61 121.68 52.10 121.71
  C 55.46 121.90 56.21 124.33 58.01 125.78
  Q 61.74 128.79 65.99 131.09
  Q 66.38 131.31 66.50 131.73
  Q 66.81 132.79 67.86 132.94
  Q 68.32 133.01 68.57 133.40
  C 70.87 137.07 75.13 136.77 78.90 135.92
  Q 81.01 135.63 82.61 136.13
  Q 83.09 136.28 83.53 136.02
  Q 86.73 134.15 88.68 137.24
  Q 89.59 138.69 88.60 139.57
  Q 88.04 140.07 86.76 140.18
  Q 76.30 141.03 67.46 139.60
  Q 68.03 134.02 61.99 131.28
  C 56.84 128.93 55.72 125.19 51.25 122.90
  C 48.85 121.67 47.03 119.49 45.17 118.13
  C 42.53 116.18 40.91 114.28 37.69 112.92
  Q 33.59 111.19 30.57 107.73
  Q 30.32 107.45 29.96 107.39
  L 27.30 106.91
  A 0.85 0.85 0.0 0 0 26.33 107.97
  C 27.66 112.78 31.99 115.14 32.44 119.72
  C 30.55 116.97 29.51 115.22 26.83 112.55
  C 24.93 110.66 24.56 107.44 23.84 105.78
  Q 22.52 102.75 20.88 99.91
  Q 18.25 95.36 18.53 87.30
  L 19.24 78.54
  Q 20.04 77.95 19.75 76.35
  Q 19.74 76.30 19.79 76.31
  Q 19.82 76.32 19.86 76.32
  Q 20.00 76.32 20.00 76.50
  L 20.01 83.94
  Q 20.01 83.94 20.06 83.94
  Q 20.08 83.94 20.10 83.94
  Q 20.20 83.93 20.20 83.84
  C 20.36 79.51 20.90 73.47 22.75 69.35
  Q 24.04 66.47 23.94 63.30
  Q 23.93 62.85 24.19 62.47
  Q 25.33 60.77 25.59 58.75
  Q 25.77 57.38 25.13 58.60
  L 24.21 60.36
  Q 24.06 60.63 24.02 60.33
  L 23.95 59.82
  A 0.11 0.10 -38.5 0 0 23.75 59.80
  L 22.75 62.25
  L 24.08 53.68
  Q 24.10 53.53 23.99 53.63
  Q 23.90 53.73 23.80 53.82
  Q 23.67 53.95 23.66 54.13
  Q 23.55 56.49 22.04 57.53
  C 21.87 56.20 22.86 55.29 23.25 54.14
  Q 24.21 51.32 26.32 50.42
  Z"
/>
<path fill="#339ea2" d="
  M 22.75 62.25
  C 21.68 68.03 19.49 73.36 19.24 78.54
  L 18.53 87.30
  L 18.81 75.37
  Q 18.82 74.53 18.56 75.33
  Q 18.28 76.14 18.20 77.64
  Q 18.20 77.69 18.16 77.70
  Q 18.15 77.70 18.13 77.70
  Q 17.91 77.72 17.92 77.67
  L 18.93 69.05
  Q 19.04 68.08 18.65 68.98
  Q 18.32 69.75 17.72 72.02
  Q 17.84 68.51 19.15 65.33
  C 19.88 63.54 19.78 61.52 21.18 59.75
  Q 21.50 59.36 21.50 58.86
  L 21.51 58.30
  Q 21.81 57.57 22.04 57.53
  Q 23.55 56.49 23.66 54.13
  Q 23.67 53.95 23.80 53.82
  Q 23.90 53.73 23.99 53.63
  Q 24.10 53.53 24.08 53.68
  L 22.75 62.25
  Z"
/>
<path fill="#b3b3b4" d="
  M 17.13 53.92
  L 14.34 70.96
  L 14.23 73.02
  Q 12.45 76.21 13.09 79.28
  C 13.96 83.42 14.15 85.46 13.90 89.10
  C 13.63 93.07 15.20 96.82 15.71 100.76
  Q 15.77 101.27 16.08 101.69
  Q 17.19 103.17 17.25 105.00
  Q 17.27 105.47 17.54 105.86
  C 19.27 108.36 19.25 111.82 21.98 114.01
  Q 22.36 114.31 22.52 114.78
  C 24.71 121.17 29.46 126.28 34.67 131.08
  C 37.93 134.07 40.45 138.00 45.08 140.25
  Q 46.52 140.96 48.13 142.17
  C 50.33 143.83 53.30 144.98 56.07 146.41
  C 61.24 149.08 69.37 150.20 74.21 150.61
  C 84.39 151.50 92.20 150.36 102.22 147.95
  Q 103.80 147.57 105.48 146.46
  C 107.96 144.84 111.54 143.47 113.54 142.31
  C 117.00 140.31 121.76 138.65 123.55 134.73
  Q 127.70 132.13 132.23 127.47
  Q 132.91 126.77 132.76 125.93
  A 1.12 1.10 -28.6 0 1 133.05 124.97
  L 138.50 119.42
  Q 138.75 119.17 138.75 118.81
  Q 138.75 118.65 138.77 118.50
  Q 138.85 117.78 138.98 117.55
  Q 142.37 111.06 149.01 106.86
  L 153.11 104.72
  L 153.20 106.99
  Q 153.22 107.56 152.71 107.80
  Q 149.30 109.36 147.07 111.94
  Q 146.89 111.75 146.34 111.72
  Q 145.87 111.69 145.57 112.05
  L 142.62 115.56
  Q 142.25 116.00 142.18 116.58
  Q 142.00 117.93 140.96 118.74
  Q 140.53 119.07 140.52 119.62
  C 140.50 122.28 138.67 122.74 137.48 124.21
  Q 136.50 125.42 135.62 126.72
  C 133.24 130.20 129.37 133.51 126.41 136.59
  C 125.15 137.91 124.71 139.05 122.70 139.85
  C 120.17 140.86 118.07 141.49 116.59 143.28
  C 115.31 144.84 113.82 145.89 111.85 146.37
  Q 111.21 146.52 110.80 147.12
  Q 110.54 147.51 110.09 147.65
  Q 106.68 148.66 99.69 151.70
  C 94.27 154.06 88.14 153.30 82.14 154.22
  C 76.05 155.15 67.49 152.98 60.06 150.19
  C 57.84 149.36 55.42 148.99 53.41 147.98
  C 47.56 145.03 42.14 141.48 37.68 136.64
  Q 36.35 135.19 34.50 134.41
  Q 34.07 134.23 33.81 133.85
  C 32.22 131.55 29.76 129.95 28.28 128.08
  C 23.69 122.30 19.41 116.52 16.96 109.32
  C 15.04 103.67 11.41 96.05 12.20 90.00
  C 12.53 87.47 11.70 84.40 11.54 82.67
  C 11.22 79.07 10.74 76.20 11.50 72.50
  Q 12.47 67.78 12.94 63.00
  C 13.07 61.67 13.40 61.08 14.51 60.45
  A 1.01 0.99 86.2 0 0 14.97 59.91
  L 17.13 53.92
  Z"
/>
<path fill="#61686a" d="
  M 21.51 58.30
  L 21.50 58.86
  Q 21.50 59.36 21.18 59.75
  C 19.78 61.52 19.88 63.54 19.15 65.33
  Q 17.84 68.51 17.72 72.02
  Q 14.48 86.77 19.65 100.76
  C 22.24 107.79 25.17 115.72 30.38 121.27
  C 33.41 124.51 35.63 128.25 39.87 130.57
  C 41.22 131.30 41.74 132.56 43.09 133.43
  C 46.12 135.38 48.85 138.20 52.37 139.21
  Q 55.82 140.21 60.51 142.49
  C 70.25 147.22 84.59 146.50 95.49 144.78
  C 103.06 142.22 110.86 139.63 117.41 134.87
  C 125.42 129.06 131.63 123.95 137.05 115.80
  Q 137.30 115.42 137.20 114.96
  Q 136.93 113.88 137.84 113.07
  A 0.38 0.38 0.0 0 0 137.46 112.42
  L 135.46 113.12
  Q 135.12 113.24 134.76 113.14
  L 133.23 112.68
  Q 136.39 110.76 139.24 110.45
  Q 139.75 110.39 139.75 110.81
  Q 139.76 111.35 140.21 111.05
  Q 144.35 108.29 149.01 106.86
  Q 142.37 111.06 138.98 117.55
  Q 138.85 117.78 138.77 118.50
  Q 138.75 118.65 138.75 118.81
  Q 138.75 119.17 138.50 119.42
  L 133.05 124.97
  A 1.12 1.10 -28.6 0 0 132.76 125.93
  Q 132.91 126.77 132.23 127.47
  Q 127.70 132.13 123.55 134.73
  L 115.29 140.18
  Q 114.94 140.41 114.74 140.78
  Q 114.39 141.43 113.64 141.27
  Q 113.13 141.16 112.69 141.45
  Q 105.62 146.11 97.47 148.27
  C 91.88 149.76 85.44 148.68 79.50 148.92
  Q 72.69 149.18 69.05 148.51
  Q 58.75 146.62 49.68 141.02
  Q 46.81 139.25 45.73 138.87
  Q 44.86 138.55 44.16 137.96
  L 33.52 128.99
  Q 33.18 128.70 33.05 128.27
  Q 31.77 123.85 27.81 121.31
  Q 27.37 121.02 27.12 120.56
  Q 23.84 114.58 21.15 108.29
  Q 21.04 108.04 20.83 107.87
  Q 20.50 107.61 20.35 107.22
  C 19.33 104.53 17.89 102.61 17.27 99.83
  Q 15.91 93.78 14.55 87.74
  Q 13.40 82.60 14.23 73.02
  L 14.34 70.96
  C 16.76 70.71 16.77 68.50 16.73 66.51
  C 16.67 63.48 17.50 61.72 18.25 59.00
  Q 18.52 58.01 19.38 58.18
  Q 19.88 58.27 20.08 57.80
  L 20.73 56.22
  Q 21.23 55.01 21.17 56.31
  Q 21.06 58.63 19.56 60.44
  Q 19.25 60.81 19.25 61.30
  L 19.25 61.73
  Q 19.25 62.08 19.43 61.78
  L 21.51 58.30
  Z"
/>
<path fill="#0c1432" d="
  M 62.18 58.20
  C 70.71 60.33 83.00 63.85 93.66 62.26
  Q 104.23 60.68 114.81 59.20
  Q 115.27 59.13 115.40 58.69
  L 115.52 58.33
  L 127.83 60.83
  Q 124.60 62.51 124.53 64.99
  L 123.64 64.94
  L 124.20 62.61
  Q 124.33 62.08 123.79 62.15
  L 97.88 65.34
  L 83.03 67.21
  Q 82.50 67.28 82.21 67.73
  Q 79.71 71.65 79.45 76.54
  Q 79.03 77.61 79.35 78.94
  C 76.30 76.29 79.26 70.73 80.41 67.59
  Q 80.60 67.07 80.06 66.90
  Q 70.31 63.94 60.66 60.99
  C 58.21 60.24 56.31 60.76 53.83 61.06
  Q 54.74 60.35 54.48 59.51
  L 62.18 58.20
  Z"
/>
<path fill="#1baca2" d="
  M 19.24 78.54
  C 19.49 73.36 21.68 68.03 22.75 62.25
  L 23.75 59.80
  A 0.11 0.10 -38.5 0 1 23.95 59.82
  L 24.02 60.33
  Q 24.06 60.63 24.21 60.36
  L 25.13 58.60
  Q 25.77 57.38 25.59 58.75
  Q 25.33 60.77 24.19 62.47
  Q 23.93 62.85 23.94 63.30
  Q 24.04 66.47 22.75 69.35
  C 20.90 73.47 20.36 79.51 20.20 83.84
  Q 20.20 83.93 20.10 83.94
  Q 20.08 83.94 20.06 83.94
  Q 20.01 83.94 20.01 83.94
  L 20.00 76.50
  Q 20.00 76.32 19.86 76.32
  Q 19.82 76.32 19.79 76.31
  Q 19.74 76.30 19.75 76.35
  Q 20.04 77.95 19.24 78.54
  Z"
/>
<path fill="#0a1d41" d="
  M 79.35 78.94
  Q 79.03 83.59 81.18 86.57
  Q 81.38 88.55 82.24 90.12
  Q 82.52 90.62 83.06 90.45
  C 92.11 87.51 101.70 86.67 110.27 84.52
  Q 116.84 82.87 123.97 81.23
  Q 126.93 80.86 128.27 81.68
  C 123.95 85.75 111.31 86.22 105.40 88.09
  Q 103.05 88.84 100.91 88.76
  Q 90.39 89.19 86.17 90.91
  Q 83.59 91.97 82.03 92.39
  A 0.65 0.65 0.0 0 1 81.24 91.96
  L 78.83 84.68
  Q 78.64 84.13 78.13 83.83
  C 70.72 79.53 62.58 77.56 55.31 73.47
  A 1.04 1.03 8.3 0 0 53.79 74.60
  Q 53.99 75.49 53.47 76.29
  L 53.83 61.06
  C 56.31 60.76 58.21 60.24 60.66 60.99
  Q 70.31 63.94 80.06 66.90
  Q 80.60 67.07 80.41 67.59
  C 79.26 70.73 76.30 76.29 79.35 78.94
  Z"
/>
<path fill="#d2d1d2" d="
  M 123.64 64.94
  L 122.86 69.43
  L 100.01 73.47
  L 97.88 65.34
  L 123.79 62.15
  Q 124.33 62.08 124.20 62.61
  L 123.64 64.94
  Z"
/>
<path fill="#2f1a39" d="
  M 123.64 64.94
  L 124.53 64.99
  C 123.41 68.10 121.94 76.74 126.74 78.12
  Q 136.12 80.81 145.57 83.85
  Q 147.17 84.71 148.93 84.71
  Q 149.83 85.64 151.25 85.57
  Q 152.43 85.64 152.94 86.32
  A 0.59 0.59 0.0 0 1 152.24 87.22
  Q 150.80 86.62 149.91 87.81
  Q 147.84 87.09 147.14 88.03
  L 122.97 93.68
  L 108.01 96.23
  Q 107.41 95.90 107.17 95.36
  C 109.67 96.04 110.23 95.29 112.29 94.75
  Q 127.93 90.66 144.47 87.03
  A 1.02 1.01 -41.5 0 0 144.59 85.08
  Q 138.03 82.76 130.87 81.81
  Q 129.89 82.14 128.27 81.68
  Q 126.93 80.86 123.97 81.23
  L 122.86 69.43
  L 123.64 64.94
  Z"
/>
<path fill="#b3b3b4" d="
  M 97.88 65.34
  L 100.01 73.47
  L 80.57 76.88
  L 79.45 76.54
  Q 79.71 71.65 82.21 67.73
  Q 82.50 67.28 83.03 67.21
  L 97.88 65.34
  Z"
/>
<path fill="#1baca2" d="
  M 18.53 87.30
  Q 18.25 95.36 20.88 99.91
  Q 22.52 102.75 23.84 105.78
  C 24.56 107.44 24.93 110.66 26.83 112.55
  C 29.51 115.22 30.55 116.97 32.44 119.72
  Q 35.09 122.92 39.43 124.73
  Q 39.92 124.94 40.24 125.37
  L 42.64 128.66
  Q 42.96 129.10 43.49 129.26
  Q 47.61 130.45 50.99 133.09
  Q 51.41 133.42 51.92 133.55
  Q 53.40 133.91 55.32 135.42
  Q 58.49 137.91 67.46 139.60
  Q 76.30 141.03 86.76 140.18
  Q 88.04 140.07 88.60 139.57
  Q 89.59 138.69 88.68 137.24
  Q 86.73 134.15 83.53 136.02
  Q 83.09 136.28 82.61 136.13
  Q 81.01 135.63 78.90 135.92
  L 82.52 134.42
  Q 83.07 134.19 82.47 134.16
  Q 81.87 134.13 81.42 134.44
  A 0.19 0.19 0.0 0 1 81.14 134.20
  Q 81.19 134.09 81.28 133.99
  Q 83.11 133.65 84.56 132.64
  Q 85.01 132.32 84.46 132.26
  Q 82.54 132.02 81.48 133.52
  L 79.03 133.81
  Q 78.48 133.87 78.97 133.62
  L 80.02 133.09
  Q 90.21 130.03 93.00 129.76
  Q 95.36 129.52 96.97 128.86
  C 101.11 127.17 106.90 124.56 111.28 123.99
  C 114.27 123.61 116.82 122.18 119.80 121.73
  Q 125.89 120.81 130.62 116.79
  A 0.42 0.42 0.0 0 1 131.31 117.16
  C 130.92 120.76 120.05 128.45 116.92 130.30
  Q 109.34 134.78 100.83 138.41
  A 1.46 1.45 -25.4 0 0 100.11 140.42
  Q 101.05 142.22 98.21 142.97
  Q 96.57 143.40 95.49 144.78
  C 84.59 146.50 70.25 147.22 60.51 142.49
  Q 55.82 140.21 52.37 139.21
  C 48.85 138.20 46.12 135.38 43.09 133.43
  C 41.74 132.56 41.22 131.30 39.87 130.57
  C 35.63 128.25 33.41 124.51 30.38 121.27
  C 25.17 115.72 22.24 107.79 19.65 100.76
  Q 14.48 86.77 17.72 72.02
  Q 18.32 69.75 18.65 68.98
  Q 19.04 68.08 18.93 69.05
  L 17.92 77.67
  Q 17.91 77.72 18.13 77.70
  Q 18.15 77.70 18.16 77.70
  Q 18.20 77.69 18.20 77.64
  Q 18.28 76.14 18.56 75.33
  Q 18.82 74.53 18.81 75.37
  L 18.53 87.30
  Z"
/>
<path fill="#ffffff" d="
  M 122.86 69.43
  L 123.97 81.23
  Q 116.84 82.87 110.27 84.52
  C 101.70 86.67 92.11 87.51 83.06 90.45
  Q 82.52 90.62 82.24 90.12
  Q 81.38 88.55 81.18 86.57
  L 80.57 76.88
  L 100.01 73.47
  L 122.86 69.43
  Z"
/>
<path fill="#898b8b" d="
  M 14.23 73.02
  Q 13.40 82.60 14.55 87.74
  Q 15.91 93.78 17.27 99.83
  C 17.89 102.61 19.33 104.53 20.35 107.22
  Q 20.50 107.61 20.83 107.87
  Q 21.04 108.04 21.15 108.29
  Q 23.84 114.58 27.12 120.56
  Q 27.37 121.02 27.81 121.31
  Q 31.77 123.85 33.05 128.27
  Q 33.18 128.70 33.52 128.99
  L 44.16 137.96
  Q 44.86 138.55 45.73 138.87
  Q 46.81 139.25 49.68 141.02
  Q 58.75 146.62 69.05 148.51
  Q 72.69 149.18 79.50 148.92
  C 85.44 148.68 91.88 149.76 97.47 148.27
  Q 105.62 146.11 112.69 141.45
  Q 113.13 141.16 113.64 141.27
  Q 114.39 141.43 114.74 140.78
  Q 114.94 140.41 115.29 140.18
  L 123.55 134.73
  C 121.76 138.65 117.00 140.31 113.54 142.31
  C 111.54 143.47 107.96 144.84 105.48 146.46
  Q 103.80 147.57 102.22 147.95
  C 92.20 150.36 84.39 151.50 74.21 150.61
  C 69.37 150.20 61.24 149.08 56.07 146.41
  C 53.30 144.98 50.33 143.83 48.13 142.17
  Q 46.52 140.96 45.08 140.25
  C 40.45 138.00 37.93 134.07 34.67 131.08
  C 29.46 126.28 24.71 121.17 22.52 114.78
  Q 22.36 114.31 21.98 114.01
  C 19.25 111.82 19.27 108.36 17.54 105.86
  Q 17.27 105.47 17.25 105.00
  Q 17.19 103.17 16.08 101.69
  Q 15.77 101.27 15.71 100.76
  C 15.20 96.82 13.63 93.07 13.90 89.10
  C 14.15 85.46 13.96 83.42 13.09 79.28
  Q 12.45 76.21 14.23 73.02
  Z"
/>
<path fill="#0a2d66" d="
  M 100.91 88.76
  Q 92.35 92.16 83.93 93.95
  Q 83.46 94.05 83.00 93.87
  C 77.90 91.84 73.28 88.83 68.41 86.82
  Q 61.12 83.81 54.33 79.79
  Q 53.89 79.53 53.83 79.03
  L 53.47 76.29
  Q 53.99 75.49 53.79 74.60
  A 1.04 1.03 8.3 0 1 55.31 73.47
  C 62.58 77.56 70.72 79.53 78.13 83.83
  Q 78.64 84.13 78.83 84.68
  L 81.24 91.96
  A 0.65 0.65 0.0 0 0 82.03 92.39
  Q 83.59 91.97 86.17 90.91
  Q 90.39 89.19 100.91 88.76
  Z"
/>
<path fill="#898b8b" d="
  M 79.45 76.54
  L 80.57 76.88
  L 81.18 86.57
  Q 79.03 83.59 79.35 78.94
  Q 79.03 77.61 79.45 76.54
  Z"
/>
<path fill="#170b1c" d="
  M 49.15 77.18
  Q 50.18 80.98 53.97 80.72
  L 53.84 90.71
  Q 53.83 91.23 54.23 91.57
  Q 57.40 94.30 61.29 95.72
  C 66.78 97.72 70.99 103.24 77.25 101.75
  Q 88.49 99.09 99.73 96.47
  C 101.95 95.95 104.70 95.98 107.17 95.36
  Q 107.41 95.90 108.01 96.23
  L 88.42 100.71
  L 74.21 103.73
  Q 73.71 103.84 73.43 104.26
  Q 69.82 109.70 69.40 116.60
  Q 67.53 118.79 68.02 113.74
  Q 68.28 111.04 71.67 104.10
  Q 71.92 103.59 71.44 103.28
  Q 68.09 101.18 64.85 98.91
  C 61.71 96.72 58.01 95.58 54.65 93.35
  Q 53.77 92.77 53.85 93.81
  L 54.50 102.66
  Q 54.53 103.18 55.01 103.38
  Q 56.03 103.81 56.26 104.38
  A 1.17 1.16 -84.8 0 1 54.56 105.80
  C 52.13 104.28 49.33 104.89 48.69 101.37
  Q 48.60 100.91 48.32 100.54
  C 46.88 98.64 46.31 96.94 46.93 94.44
  C 47.56 91.91 48.72 88.35 45.17 87.23
  C 40.58 85.77 36.33 83.10 32.21 80.62
  Q 32.93 79.08 34.78 79.11
  L 42.93 77.99
  L 49.15 77.18
  Z
  M 35.88 81.04
  Q 39.17 82.84 41.69 85.01
  C 43.57 86.63 45.49 86.86 47.76 87.44
  A 0.59 0.58 -81.4 0 0 48.48 86.90
  L 48.85 79.90
  Q 48.88 79.26 48.25 79.15
  C 44.56 78.49 39.55 79.94 35.97 80.51
  A 0.28 0.28 0.0 0 0 35.88 81.04
  Z"
/>
<path fill="#491f54" d="
  M 35.88 81.04
  A 0.28 0.28 0.0 0 1 35.97 80.51
  C 39.55 79.94 44.56 78.49 48.25 79.15
  Q 48.88 79.26 48.85 79.90
  L 48.48 86.90
  A 0.59 0.58 -81.4 0 1 47.76 87.44
  C 45.49 86.86 43.57 86.63 41.69 85.01
  Q 39.17 82.84 35.88 81.04
  Z"
/>
<path fill="#491f54" d="
  M 32.21 80.62
  C 36.33 83.10 40.58 85.77 45.17 87.23
  C 48.72 88.35 47.56 91.91 46.93 94.44
  C 46.31 96.94 46.88 98.64 48.32 100.54
  Q 48.60 100.91 48.69 101.37
  C 49.33 104.89 52.13 104.28 54.56 105.80
  A 1.17 1.16 -84.8 0 0 56.26 104.38
  Q 56.03 103.81 55.01 103.38
  Q 54.53 103.18 54.50 102.66
  L 53.85 93.81
  Q 53.77 92.77 54.65 93.35
  C 58.01 95.58 61.71 96.72 64.85 98.91
  Q 68.09 101.18 71.44 103.28
  Q 71.92 103.59 71.67 104.10
  Q 68.28 111.04 68.02 113.74
  Q 67.53 118.79 69.40 116.60
  Q 69.50 123.39 72.96 129.50
  Q 73.29 130.09 73.78 130.23
  Q 74.49 130.45 74.98 129.99
  C 78.90 130.13 80.84 128.11 83.44 127.14
  Q 88.12 125.40 92.73 123.51
  C 95.16 122.51 98.33 122.35 100.30 121.53
  C 107.90 118.37 114.64 115.56 123.17 112.79
  C 131.74 110.00 139.85 106.25 148.39 103.36
  Q 148.89 103.19 148.73 102.69
  L 147.68 99.49
  Q 148.52 99.62 149.01 99.22
  Q 149.70 100.91 150.75 100.61
  Q 152.40 102.07 154.03 102.47
  A 1.13 1.13 0.0 0 1 153.80 104.69
  L 153.11 104.72
  L 149.01 106.86
  Q 144.35 108.29 140.21 111.05
  Q 139.76 111.35 139.75 110.81
  Q 139.75 110.39 139.24 110.45
  Q 136.39 110.76 133.23 112.68
  Q 132.00 112.84 131.00 113.80
  Q 130.67 114.12 130.20 114.13
  Q 124.44 114.23 120.26 118.09
  Q 119.88 118.45 119.36 118.46
  C 116.69 118.54 114.79 120.35 112.68 120.98
  Q 110.50 121.63 108.32 122.43
  Q 107.84 122.60 107.34 122.51
  Q 105.89 122.23 104.79 123.06
  Q 104.37 123.37 103.85 123.43
  C 100.21 123.88 97.81 126.27 95.09 127.35
  Q 92.86 128.24 90.63 129.11
  C 88.00 130.13 84.74 130.29 81.80 131.65
  L 75.25 134.06
  A 0.75 0.74 60.0 0 1 74.41 133.83
  C 72.79 131.79 72.07 131.32 69.40 130.13
  C 65.86 128.55 63.87 125.27 60.14 123.16
  C 56.30 120.99 53.75 118.78 50.66 116.16
  C 47.38 113.39 43.37 111.93 40.26 108.26
  C 38.30 105.95 32.77 104.29 30.54 101.31
  C 27.66 97.46 27.84 91.10 28.64 86.51
  L 32.21 80.62
  Z
  M 67.29 117.20
  C 65.56 115.26 63.69 113.35 60.96 113.07
  A 1.77 1.74 66.4 0 1 60.06 112.71
  C 56.57 109.93 53.69 106.95 49.64 104.74
  Q 45.18 102.31 41.24 99.10
  C 37.49 96.04 33.67 95.32 30.24 91.58
  A 0.46 0.45 -63.7 0 0 29.45 91.85
  C 29.00 97.01 30.41 101.49 35.13 103.90
  C 39.19 105.97 41.19 109.16 44.81 111.37
  C 49.53 114.26 53.76 117.00 58.52 121.58
  A 2.01 1.99 73.9 0 0 59.38 122.06
  C 63.63 123.15 66.97 126.99 70.01 129.78
  A 0.78 0.78 0.0 0 0 71.22 128.81
  Q 68.34 123.80 67.67 118.05
  A 1.49 1.47 -69.5 0 0 67.29 117.20
  Z"
/>
<path fill="#491f54" d="
  M 53.97 80.72
  C 59.88 84.47 66.51 86.53 72.04 89.64
  C 77.38 92.63 82.36 96.19 86.51 95.04
  C 96.60 92.25 106.58 88.70 116.89 86.86
  Q 123.80 85.63 130.44 83.22
  Q 130.71 83.12 130.87 81.81
  Q 138.03 82.76 144.59 85.08
  A 1.02 1.01 -41.5 0 1 144.47 87.03
  Q 127.93 90.66 112.29 94.75
  C 110.23 95.29 109.67 96.04 107.17 95.36
  C 104.70 95.98 101.95 95.95 99.73 96.47
  Q 88.49 99.09 77.25 101.75
  C 70.99 103.24 66.78 97.72 61.29 95.72
  Q 57.40 94.30 54.23 91.57
  Q 53.83 91.23 53.84 90.71
  L 53.97 80.72
  Z"
/>
<path fill="#397976" d="
  M 28.64 86.51
  C 27.84 91.10 27.66 97.46 30.54 101.31
  C 32.77 104.29 38.30 105.95 40.26 108.26
  C 43.37 111.93 47.38 113.39 50.66 116.16
  C 53.75 118.78 56.30 120.99 60.14 123.16
  C 63.87 125.27 65.86 128.55 69.40 130.13
  C 72.07 131.32 72.79 131.79 74.41 133.83
  A 0.75 0.74 60.0 0 0 75.25 134.06
  L 81.80 131.65
  Q 81.31 132.66 80.02 133.09
  L 78.97 133.62
  Q 78.48 133.87 79.03 133.81
  L 81.48 133.52
  L 81.28 133.99
  Q 81.19 134.09 81.14 134.20
  A 0.19 0.19 0.0 0 0 81.42 134.44
  Q 81.87 134.13 82.47 134.16
  Q 83.07 134.19 82.52 134.42
  L 78.90 135.92
  C 75.13 136.77 70.87 137.07 68.57 133.40
  Q 68.32 133.01 67.86 132.94
  Q 66.81 132.79 66.50 131.73
  Q 66.38 131.31 65.99 131.09
  Q 61.74 128.79 58.01 125.78
  C 56.21 124.33 55.46 121.90 52.10 121.71
  Q 51.61 121.68 51.28 121.33
  Q 44.80 114.59 36.54 110.21
  Q 34.00 108.87 28.87 103.27
  C 25.58 99.68 25.75 92.93 26.43 88.45
  Q 26.50 87.95 26.92 87.67
  L 28.64 86.51
  Z"
/>
<path fill="#61686a" d="
  M 149.91 87.81
  Q 148.21 93.55 149.01 99.22
  Q 148.52 99.62 147.68 99.49
  L 147.14 95.25
  Q 147.95 90.71 147.14 88.03
  Q 147.84 87.09 149.91 87.81
  Z"
/>
<path fill="#d2d1d2" d="
  M 147.14 88.03
  Q 147.95 90.71 147.14 95.25
  L 124.71 101.91
  Q 125.02 100.23 124.23 97.72
  Q 124.09 97.30 123.72 97.07
  Q 121.54 95.73 122.97 93.68
  L 147.14 88.03
  Z"
/>
<path fill="#792f87" d="
  M 60.96 113.07
  C 63.69 113.35 65.56 115.26 67.29 117.20
  A 1.49 1.47 -69.5 0 1 67.67 118.05
  Q 68.34 123.80 71.22 128.81
  A 0.78 0.78 0.0 0 1 70.01 129.78
  C 66.97 126.99 63.63 123.15 59.38 122.06
  A 2.01 1.99 73.9 0 1 58.52 121.58
  C 53.76 117.00 49.53 114.26 44.81 111.37
  C 41.19 109.16 39.19 105.97 35.13 103.90
  C 30.41 101.49 29.00 97.01 29.45 91.85
  A 0.46 0.45 -63.7 0 1 30.24 91.58
  C 33.67 95.32 37.49 96.04 41.24 99.10
  Q 45.18 102.31 49.64 104.74
  C 53.69 106.95 56.57 109.93 60.06 112.71
  A 1.77 1.74 66.4 0 0 60.96 113.07
  Z"
/>
<path fill="#c0c1c2" d="
  M 122.97 93.68
  Q 121.54 95.73 123.72 97.07
  Q 124.09 97.30 124.23 97.72
  Q 125.02 100.23 124.71 101.91
  C 119.29 103.48 113.32 104.26 108.50 105.62
  Q 100.86 107.78 93.30 109.98
  Q 93.41 108.51 91.31 108.50
  Q 90.78 108.49 90.80 107.96
  Q 90.98 104.07 88.42 100.71
  L 108.01 96.23
  L 122.97 93.68
  Z"
/>
<path fill="#ffffff" d="
  M 147.14 95.25
  L 147.68 99.49
  L 148.73 102.69
  Q 148.89 103.19 148.39 103.36
  C 139.85 106.25 131.74 110.00 123.17 112.79
  C 114.64 115.56 107.90 118.37 100.30 121.53
  C 98.33 122.35 95.16 122.51 92.73 123.51
  Q 88.12 125.40 83.44 127.14
  C 80.84 128.11 78.90 130.13 74.98 129.99
  Q 73.88 129.85 74.12 128.96
  Q 72.20 122.58 72.17 115.82
  Q 72.17 115.25 72.71 115.12
  L 93.30 109.98
  Q 100.86 107.78 108.50 105.62
  C 113.32 104.26 119.29 103.48 124.71 101.91
  L 147.14 95.25
  Z"
/>
<path fill="#b3b3b4" d="
  M 88.42 100.71
  Q 90.98 104.07 90.80 107.96
  Q 90.78 108.49 91.31 108.50
  Q 93.41 108.51 93.30 109.98
  L 72.71 115.12
  Q 72.17 115.25 72.17 115.82
  Q 72.20 122.58 74.12 128.96
  Q 73.88 129.85 74.98 129.99
  Q 74.49 130.45 73.78 130.23
  Q 73.29 130.09 72.96 129.50
  Q 69.50 123.39 69.40 116.60
  Q 69.82 109.70 73.43 104.26
  Q 73.71 103.84 74.21 103.73
  L 88.42 100.71
  Z"
/>
<path fill="#64bfbb" d="
  M 67.46 139.60
  Q 58.49 137.91 55.32 135.42
  Q 53.40 133.91 51.92 133.55
  Q 51.41 133.42 50.99 133.09
  Q 47.61 130.45 43.49 129.26
  Q 42.96 129.10 42.64 128.66
  L 40.24 125.37
  Q 39.92 124.94 39.43 124.73
  Q 35.09 122.92 32.44 119.72
  C 31.99 115.14 27.66 112.78 26.33 107.97
  A 0.85 0.85 0.0 0 1 27.30 106.91
  L 29.96 107.39
  Q 30.32 107.45 30.57 107.73
  Q 33.59 111.19 37.69 112.92
  C 40.91 114.28 42.53 116.18 45.17 118.13
  C 47.03 119.49 48.85 121.67 51.25 122.90
  C 55.72 125.19 56.84 128.93 61.99 131.28
  Q 68.03 134.02 67.46 139.60
  Z"
/>
<path fill="#1a8a8e" d="
  M 95.49 144.78
  Q 96.57 143.40 98.21 142.97
  Q 101.05 142.22 100.11 140.42
  A 1.46 1.45 -25.4 0 1 100.83 138.41
  Q 109.34 134.78 116.92 130.30
  C 120.05 128.45 130.92 120.76 131.31 117.16
  A 0.42 0.42 0.0 0 0 130.62 116.79
  Q 125.89 120.81 119.80 121.73
  C 116.82 122.18 114.27 123.61 111.28 123.99
  C 106.90 124.56 101.11 127.17 96.97 128.86
  Q 95.36 129.52 93.00 129.76
  Q 90.21 130.03 80.02 133.09
  Q 81.31 132.66 81.80 131.65
  C 84.74 130.29 88.00 130.13 90.63 129.11
  Q 92.86 128.24 95.09 127.35
  C 97.81 126.27 100.21 123.88 103.85 123.43
  Q 104.37 123.37 104.79 123.06
  Q 105.89 122.23 107.34 122.51
  Q 107.84 122.60 108.32 122.43
  Q 110.50 121.63 112.68 120.98
  C 114.79 120.35 116.69 118.54 119.36 118.46
  Q 119.88 118.45 120.26 118.09
  Q 124.44 114.23 130.20 114.13
  Q 130.67 114.12 131.00 113.80
  Q 132.00 112.84 133.23 112.68
  L 134.76 113.14
  Q 135.12 113.24 135.46 113.12
  L 137.46 112.42
  A 0.38 0.38 0.0 0 1 137.84 113.07
  Q 136.93 113.88 137.20 114.96
  Q 137.30 115.42 137.05 115.80
  C 131.63 123.95 125.42 129.06 117.41 134.87
  C 110.86 139.63 103.06 142.22 95.49 144.78
  Z"
/>
<path fill="#339ea2" d="
  M 81.28 133.99
  L 81.48 133.52
  Q 82.54 132.02 84.46 132.26
  Q 85.01 132.32 84.56 132.64
  Q 83.11 133.65 81.28 133.99
  Z"
/>
</svg>
